<svg width="22" height="24" viewBox="0 0 22 24" fill="none" xmlns="http://www.w3.org/2000/svg">
<path d="M0.00568176 19.8497C-0.0285182 20.1854 0.093082 20.5137 0.332482 20.7524L1.43068 21.8305C2.16408 22.5505 3.14068 22.9459 4.17808 22.9459C5.21548 22.9459 6.19208 22.5505 6.92548 21.8305L11.0675 17.7681C11.3069 17.5331 11.4247 17.2085 11.3981 16.8802C11.3677 16.5445 11.1967 16.2535 10.9079 16.0558C10.4671 15.7499 9.81348 15.832 9.39548 16.2461L5.26488 20.301C4.66828 20.8867 3.69548 20.8867 3.09508 20.301L1.97408 19.2006C1.73848 18.9693 1.42688 18.8462 1.11908 18.8462C0.910082 18.8462 0.701082 18.9021 0.518682 19.0215C0.222282 19.2155 0.0360817 19.5102 0.00188167 19.8497H0.00568176Z" fill="#4CB069"/>
<path d="M11.6362 23.5606H16.9562C19.2628 23.5606 21.1362 21.7215 21.1362 19.4572V7.32951C21.1362 6.43421 20.779 5.59113 20.133 4.95696L16.5306 1.4205C15.8846 0.78633 15.0258 0.435669 14.1138 0.435669H5.18C2.8734 0.435669 1 2.27477 1 4.53915V14.6113C1 15.2268 1.513 15.7305 2.14 15.7305C2.767 15.7305 3.28 15.2268 3.28 14.6113V4.53542C3.28 3.50582 4.1312 2.6702 5.18 2.6702H14.1138C14.4178 2.6702 14.7066 2.78584 14.9194 2.99848L18.5256 6.53866C18.7384 6.74756 18.86 7.03481 18.86 7.32951V19.4609C18.86 20.4905 18.0088 21.3261 16.96 21.3261H11.64C11.013 21.3261 10.5 21.8297 10.5 22.4452C10.5 23.0608 11.013 23.5644 11.64 23.5644L11.6362 23.5606Z" fill="#4CB069"/>
</svg>
