<svg width="31" height="31" viewBox="0 0 31 31" fill="none" xmlns="http://www.w3.org/2000/svg">
<path d="M24.5 13.625V13C24.5 8.28596 24.5 5.92893 23.0355 4.46447C21.5711 3 19.214 3 14.5 3C9.78596 3 7.42893 3 5.96447 4.46447C4.5 5.92893 4.5 8.28596 4.5 13V20.5C4.5 22.8297 4.5 23.9946 4.8806 24.9134C5.38807 26.1386 6.36144 27.1119 7.58658 27.6194C8.50544 28 9.67029 28 12 28" stroke="#4CB069" stroke-width="1.5" stroke-linecap="round" stroke-linejoin="round"/>
<path d="M19.5625 24.0178H18.8125C18.8125 24.432 19.1483 24.7678 19.5625 24.7678V24.0178ZM22.6875 24.0178V24.7678C23.1017 24.7678 23.4375 24.432 23.4375 24.0178H22.6875ZM19.375 19.0178C19.375 18.0513 20.1585 17.2678 21.125 17.2678V15.7678C19.3301 15.7678 17.875 17.2229 17.875 19.0178H19.375ZM21.125 17.2678C22.0915 17.2678 22.875 18.0513 22.875 19.0178H24.375C24.375 17.2229 22.9199 15.7678 21.125 15.7678V17.2678ZM19.5625 24.7678H22.6875V23.2678H19.5625V24.7678ZM20.3125 24.0178C20.3125 22.6629 20.0559 21.6866 19.8105 20.8903C19.5567 20.0669 19.375 19.5822 19.375 19.0178H17.875C17.875 19.8691 18.162 20.6344 18.377 21.3321C18.6004 22.0569 18.8125 22.8727 18.8125 24.0178H20.3125ZM23.4375 24.0178C23.4375 22.8727 23.6496 22.0569 23.873 21.3321C24.088 20.6344 24.375 19.8691 24.375 19.0178H22.875C22.875 19.5822 22.6933 20.0669 22.4395 20.8903C22.1941 21.6866 21.9375 22.6629 21.9375 24.0178H23.4375Z" fill="#4CB069"/>
<path d="M26.75 27.75H15.5V26.1929C15.5 25.6348 15.833 25.1443 16.3159 24.991L19.1345 24.0962C19.3355 24.0324 19.5436 24 19.7526 24H22.4974C22.7064 24 22.9145 24.0324 23.1155 24.0962L25.9341 24.991C26.417 25.1443 26.75 25.6348 26.75 26.1929V27.75Z" stroke="#4CB069" stroke-width="1.5" stroke-linejoin="round"/>
<path d="M9.25 9.01782H19.25M9.25 14.0178H14.25" stroke="#00B277" stroke-width="1.5" stroke-linecap="round"/>
</svg>
