<svg width="22" height="24" viewBox="0 0 22 24" fill="none" xmlns="http://www.w3.org/2000/svg">
<path d="M10.0035 8.13287H11.9015V9.76765H10.0035V8.13287Z" fill="white"/>
<path opacity="0.8" d="M17.5599 15.5948V18.7357C17.5612 19.2159 17.3366 19.6767 16.9351 20.0171C16.5339 20.3577 15.9888 20.55 15.4196 20.5521H2.96304C3.07571 20.6353 3.19572 20.7111 3.32197 20.7791C3.46336 20.8508 3.61388 20.9092 3.77064 20.9532C4.02047 21.0318 4.28477 21.0728 4.55151 21.0743H17.699C18.3302 21.0722 18.9346 20.8591 19.3796 20.4817C19.8247 20.1042 20.0739 19.5935 20.0728 19.0611V7.45889H14.7912C14.0185 7.45382 13.2797 7.19038 12.7371 6.7264C12.1943 6.26241 11.8924 5.63578 11.897 4.98404V0.5H4.54666C3.91628 0.503004 3.31308 0.716504 2.8691 1.09376C2.42488 1.47119 2.17641 1.98138 2.17749 2.51314V13.7784H15.419C15.9882 13.7805 16.5332 13.9728 16.9345 14.3134C17.3359 14.6538 17.5606 15.1148 17.5593 15.5947L17.5599 15.5948ZM15.0785 12.7568C15.0774 12.0641 14.8372 11.3868 14.3869 10.8075C13.9365 10.2282 13.2959 9.77212 12.5433 9.49494V10.3086H9.36634V9.49494C8.61306 9.77135 7.97179 10.2272 7.52136 10.8067C7.07091 11.3862 6.83112 12.0639 6.83112 12.7568C6.83112 12.903 6.6904 13.0217 6.51695 13.0217C6.3435 13.0217 6.20299 12.903 6.20299 12.7568C6.20322 11.3049 7.11035 9.9606 8.59017 9.21869H6.96117V9.76736H5.07208V8.13259H6.96117V8.67751H9.34835L9.34858 7.59141H12.5255V8.67751H14.9127L14.9125 8.13259H16.8332V9.76736H14.9305V9.21869H13.3195C14.7984 9.96171 15.7065 11.3048 15.7114 12.7568C15.722 12.833 15.6935 12.9096 15.6332 12.9671C15.5726 13.0243 15.486 13.0572 15.3949 13.0572C15.3039 13.0572 15.217 13.0243 15.1567 12.9671C15.0961 12.9096 15.0679 12.833 15.0785 12.7568Z" fill="url(#paint0_linear_2001_1834)"/>
<path d="M8.8786 16.2837L8.39832 17.5211H9.34973L8.8786 16.2837Z" fill="#FFAB00"/>
<path d="M1.92282 19.9466H15.4112C15.7906 19.9455 16.1537 19.8173 16.4205 19.5901C16.6875 19.3628 16.836 19.0555 16.8338 18.7357V15.5948C16.8349 15.2758 16.6857 14.9693 16.4189 14.7428C16.1522 14.5164 15.7897 14.3887 15.4111 14.3878H1.81906H1.81928C1.69726 14.3958 1.57658 14.4161 1.46034 14.4482C1.1809 14.531 0.938868 14.6844 0.766973 14.8876C0.595079 15.0908 0.501784 15.334 0.5 15.5835V20.4199C0.823976 20.1799 1.22546 20.027 1.65315 19.9809C1.74221 19.9655 1.83194 19.954 1.92235 19.9469L1.92282 19.9466ZM11.0454 15.5645H11.8127V18.7092H11.0454V15.5645ZM8.45181 15.5645H9.3269L10.637 18.7092H9.79802L9.55109 18.0544H8.20487L7.95348 18.7015H7.14588L8.45181 15.5645ZM5.88963 18.0734H6.65249V18.7092H5.88963V18.0734Z" fill="#FFAB00"/>
<path d="M5.71045 8.67749H6.34306V9.21867H5.71045V8.67749Z" fill="#97F2B2"/>
<path d="M3.22833 21.4604C2.74315 21.2563 2.32878 20.95 2.02571 20.5711H1.94043C1.55878 20.5681 1.19182 20.6939 0.921062 20.9207C0.650525 21.1476 0.498895 21.4565 0.500006 21.7781V22.2928C0.498893 22.612 0.64808 22.9185 0.914825 23.1448C1.18158 23.3712 1.54407 23.4989 1.92239 23.5H7.9623C8.21658 23.5004 8.46619 23.4429 8.68509 23.3337C8.90374 23.2244 9.08343 23.0676 9.20545 22.8794H5.97459C5.40635 22.8789 4.84926 22.7461 4.36474 22.4958C3.88023 22.2453 3.48703 21.887 3.22847 21.4604L3.22833 21.4604Z" fill="url(#paint1_linear_2001_1834)"/>
<path d="M15.568 8.67749H16.2006V9.21867H15.568V8.67749Z" fill="#97F2B2"/>
<path d="M19.3151 1.67706H14.4957L20.6833 6.93306C20.7127 6.9586 20.7369 6.98789 20.7552 7.02V7.05023C20.7572 7.07671 20.7572 7.10337 20.7552 7.12985C20.7556 7.13604 20.7556 7.14243 20.7552 7.14862V19.0801C20.7563 19.7732 20.4317 20.4385 19.852 20.9301C19.2725 21.4217 18.4853 21.6994 17.6635 21.7024H4.32275H4.32298C4.76273 22.0693 5.35568 22.2759 5.97426 22.2775H19.1309C19.7612 22.2745 20.3644 22.061 20.8084 21.6838C21.2526 21.3064 21.5013 20.7962 21.5 20.2644V3.53114C21.5014 3.04087 21.2718 2.57051 20.8621 2.22291C20.4524 1.87515 19.896 1.67895 19.3148 1.67688L19.3151 1.67706Z" fill="url(#paint2_linear_2001_1834)"/>
<path d="M14.792 6.84219H19.5666L13.4817 1.67704L13.1227 1.37059L12.7638 1.0679L12.6068 0.931763L12.6066 4.98433C12.6041 5.47517 12.833 5.9465 13.243 6.29501C13.6527 6.64352 14.2102 6.84013 14.792 6.84219Z" fill="url(#paint3_linear_2001_1834)"/>
<defs>
<linearGradient id="paint0_linear_2001_1834" x1="5.67266" y1="0.0716481" x2="20.8104" y2="23.3484" gradientUnits="userSpaceOnUse">
<stop stop-color="#00A76F"/>
<stop offset="1" stop-color="#A8E45B"/>
</linearGradient>
<linearGradient id="paint1_linear_2001_1834" x1="2.20028" y1="20.5101" x2="3.0663" y2="25.0605" gradientUnits="userSpaceOnUse">
<stop stop-color="#00A76F"/>
<stop offset="1" stop-color="#A8E45B"/>
</linearGradient>
<linearGradient id="paint2_linear_2001_1834" x1="7.67769" y1="1.24798" x2="23.0851" y2="23.9597" gradientUnits="userSpaceOnUse">
<stop stop-color="#00A76F"/>
<stop offset="1" stop-color="#A8E45B"/>
</linearGradient>
<linearGradient id="paint3_linear_2001_1834" x1="13.9659" y1="0.808709" x2="17.6796" y2="8.53975" gradientUnits="userSpaceOnUse">
<stop stop-color="#00A76F"/>
<stop offset="1" stop-color="#A8E45B"/>
</linearGradient>
</defs>
</svg>
