<svg width="31" height="30" viewBox="0 0 31 30" fill="none" xmlns="http://www.w3.org/2000/svg">
<path d="M15.9325 10.1196C15.8071 9.76473 15.6136 9.44202 15.3676 9.16722C14.8444 8.58269 14.0842 8.21484 13.238 8.21484H11.0265C9.61792 8.21484 8.47607 9.35669 8.47607 10.7652C8.47607 11.9637 9.31061 13.0006 10.4814 13.2567L13.8485 13.9932C15.1602 14.2802 16.0951 15.4425 16.0951 16.7852C16.0951 18.3632 14.8159 19.6434 13.238 19.6434H11.3332C10.0892 19.6434 9.03088 18.8483 8.63865 17.7386" stroke="#4CB069" stroke-linecap="round" stroke-linejoin="round"/>
<path d="M12.5001 8.58931V5.73218" stroke="#00B277" stroke-linecap="round" stroke-linejoin="round"/>
<path d="M12.5001 22.5894V19.7322" stroke="#00B277" stroke-linecap="round" stroke-linejoin="round"/>
<path d="M26.2143 1.07153H5.85713C4.72049 1.07153 3.6304 1.52306 2.82668 2.3268C2.02294 3.13052 1.57141 4.22061 1.57141 5.35725V28.9287L6.92855 25.7144L12.2857 28.9287L17.6428 25.7144L23 28.9287V4.28582C23 3.43335 23.3386 2.61576 23.9413 2.01298C24.5441 1.41018 25.3618 1.07153 26.2143 1.07153ZM26.2143 1.07153C27.0667 1.07153 27.8844 1.41018 28.4872 2.01298C29.09 2.61576 29.4286 3.43335 29.4286 4.28582V11.7858H23" stroke="#4CB069" stroke-linecap="round" stroke-linejoin="round"/>
</svg>
