<svg width="27" height="25" viewBox="0 0 27 25" fill="none" xmlns="http://www.w3.org/2000/svg">
<path d="M24 9.94998V2.74998C24 1.42998 22.92 0.349976 21.6 0.349976H2.4C1.08 0.349976 0.012 1.42998 0.012 2.74998L0 17.15C0 18.47 1.08 19.55 2.4 19.55H15.6V13.55C15.6 11.558 17.208 9.94998 19.2 9.94998H24ZM12.636 10.754C12.252 10.994 11.748 10.994 11.364 10.754L2.88 5.44998C2.58 5.25798 2.4 4.93398 2.4 4.58598C2.4 3.78198 3.276 3.30198 3.96 3.72198L12 8.74998L20.04 3.72198C20.724 3.30198 21.6 3.78198 21.6 4.58598C21.6 4.93398 21.42 5.25798 21.12 5.44998L12.636 10.754Z" fill="#007435"/>
<path d="M25.2 14.75C24.54 14.75 24 15.29 24 15.95V19.55C24 20.87 22.92 21.95 21.6 21.95C20.28 21.95 19.2 20.87 19.2 19.55V14.15C19.2 13.814 19.464 13.55 19.8 13.55C20.136 13.55 20.4 13.814 20.4 14.15V18.35C20.4 19.01 20.94 19.55 21.6 19.55C22.26 19.55 22.8 19.01 22.8 18.35V14.15C22.8 12.494 21.456 11.15 19.8 11.15C18.144 11.15 16.8 12.494 16.8 14.15V19.55C16.8 22.202 18.948 24.35 21.6 24.35C24.252 24.35 26.4 22.202 26.4 19.55V15.95C26.4 15.29 25.86 14.75 25.2 14.75Z" fill="#73AD2A"/>
</svg>
