<svg width="30" height="33" viewBox="0 0 30 33" fill="none" xmlns="http://www.w3.org/2000/svg">
<path d="M0.312554 29.4346H29.6874C29.8598 29.4346 30 29.6337 30 29.7956V31.9069C30 32.106 29.8602 32.2679 29.6874 32.2679H0.312554C0.140151 32.2679 0 32.0688 0 31.9069V29.7956C0 29.5965 0.139842 29.4346 0.312554 29.4346Z" fill="#4CB069"/>
<path d="M1.4063 17.0713H5.4397C5.6121 17.0713 5.75225 17.2704 5.75225 17.4323V27.992C5.75225 28.1911 5.61241 28.353 5.4397 28.353H1.4063C1.2339 28.353 1.09375 28.1539 1.09375 27.992V17.4323C1.09375 17.2332 1.23359 17.0713 1.4063 17.0713Z" fill="#4CB069"/>
<path d="M9.1231 10.3406H13.1597C13.3321 10.3406 13.4722 10.5397 13.4722 10.7016V27.9912C13.4722 28.1903 13.3324 28.3522 13.1597 28.3522H9.1231C8.9507 28.3522 8.81055 28.1531 8.81055 27.9912V10.7016C8.81055 10.5025 8.95039 10.3406 9.1231 10.3406Z" fill="#4CB069"/>
<path d="M16.8399 13.7073H20.8765C21.0489 13.7073 21.189 13.9064 21.189 14.0683V27.9911C21.189 28.1902 21.0492 28.3521 20.8765 28.3521H16.8399C16.6675 28.3521 16.5273 28.153 16.5273 27.9911V14.0683C16.5273 13.8692 16.6672 13.7073 16.8399 13.7073Z" fill="#4CB069"/>
<path d="M24.3126 7H28.3459C28.5183 7 28.6585 7.19914 28.6585 7.36102V28.0146C28.6585 28.2138 28.5187 28.3757 28.3459 28.3757H24.3126C24.1402 28.3757 24 28.1765 24 28.0146V7.36102C24 7.16188 24.1398 7 24.3126 7Z" fill="#4CB069"/>
<path d="M5.2413 12.6683C5.2413 13.9516 4.34019 14.9925 3.22921 14.9925C2.1179 14.9925 1.2168 13.9516 1.2168 12.6683C1.2168 11.3847 2.1179 10.3442 3.22921 10.3442C4.34019 10.3442 5.2413 11.3847 5.2413 12.6683Z" fill="#4CB069"/>
<path d="M13.1554 5.69178C13.1554 6.97541 12.2543 8.01589 11.1433 8.01589C10.032 8.01589 9.13086 6.97541 9.13086 5.69178C9.13086 4.40852 10.032 3.36768 11.1433 3.36768C12.2543 3.36768 13.1554 4.40852 13.1554 5.69178Z" fill="#4CB069"/>
<path d="M20.8718 8.78553C20.8718 10.0688 19.9711 11.1096 18.8597 11.1096C17.7484 11.1096 16.8477 10.0688 16.8477 8.78553C16.8477 7.5019 17.7484 6.46143 18.8597 6.46143C19.9711 6.46143 20.8718 7.5019 20.8718 8.78553Z" fill="#4CB069"/>
<path d="M28.5906 2.59193C28.5906 3.87556 27.6898 4.91603 26.5785 4.91603C25.4672 4.91603 24.5664 3.87556 24.5664 2.59193C24.5664 1.3083 25.4672 0.267822 26.5785 0.267822C27.6898 0.267822 28.5906 1.3083 28.5906 2.59193Z" fill="#4CB069"/>
<path d="M9.01798 8.04925L5.7498 10.893C5.58081 10.5822 5.36995 10.3042 5.125 10.0704L8.46819 7.16174L8.46788 7.16138C8.60865 7.4898 8.79442 7.78959 9.01798 8.04925Z" fill="#4CB069"/>
<path d="M16.2503 7.21584C16.0965 7.54462 15.9908 7.90064 15.9377 8.26952L13.9102 6.85477C14.0227 6.48837 14.0819 6.103 14.085 5.71436L16.2503 7.21584Z" fill="#4CB069"/>
<path d="M24.5073 5.01346L21.6079 7.53956H21.6082C21.4935 7.19859 21.331 6.88127 21.127 6.60159L23.939 4.13317V4.13281C24.0838 4.4616 24.276 4.75953 24.5073 5.01346Z" fill="#4CB069"/>
</svg>
