<svg width="42" height="56" viewBox="0 0 42 56" fill="none" xmlns="http://www.w3.org/2000/svg">
<path d="M29.3378 16.6672H11.5623C10.1496 16.6672 9 17.9838 9 19.6024V33.4043C9 35.0225 10.1496 36.3391 11.5623 36.3391H20.1103L20.3774 36.664C21.5311 38.0678 22.7496 39.6642 23.4809 40.636L26.8572 36.3391H29.3378C30.7508 36.3391 31.9004 35.0225 31.9004 33.4043V19.6024C31.9004 17.9838 30.7508 16.6672 29.3378 16.6672ZM21.7687 32.2672L21.5161 32.3444V33.6832C21.5161 34.0034 21.2871 34.2619 21.0107 34.2619H19.7947C19.5151 34.2619 19.2894 34.0034 19.2894 33.6832V32.4563L18.9897 32.4216C18.0599 32.3022 17.1841 32.0128 16.5945 31.6232C16.3655 31.4766 16.278 31.1601 16.3823 30.8862L16.8472 29.7019C16.9045 29.5553 17.0123 29.4434 17.1436 29.3892C17.1976 29.37 17.2515 29.3583 17.3052 29.3583C17.3894 29.3583 17.4703 29.3816 17.5444 29.4277C18.2518 29.8598 19.2019 30.1183 20.0843 30.1183C21.1219 30.1183 21.8764 29.6322 21.8764 28.9649C21.8764 28.5327 21.6573 28.012 20.0438 27.4102C18.2958 26.781 16.5139 25.8628 16.5139 23.8028C16.5139 22.2402 17.5075 21.0175 19.1716 20.5352L19.4243 20.4617V19.1693C19.4243 18.8528 19.6533 18.5944 19.9296 18.5944H21.1255C21.4051 18.5944 21.6308 18.8528 21.6308 19.1693V20.3306L21.9273 20.3731C22.6379 20.4696 23.268 20.6701 23.8473 20.9828C23.9687 21.0484 24.0629 21.164 24.1066 21.3106C24.1537 21.4534 24.1471 21.6154 24.0898 21.7504L23.6082 22.9192C23.5239 23.1197 23.3453 23.2511 23.1502 23.2511C23.0794 23.2511 23.0087 23.2319 22.9412 23.1972C22.628 23.0314 21.8937 22.6494 20.7212 22.6494C19.6568 22.6494 19.1818 23.12 19.1818 23.5906C19.1818 24.1155 19.6769 24.4701 21.2265 25.0567C22.8771 25.674 24.5616 26.6039 24.5616 28.8413C24.5616 30.0487 23.8305 31.673 21.7687 32.2672Z" fill="black"/>
</svg>
