<svg width="25" height="26" viewBox="0 0 25 26" fill="none" xmlns="http://www.w3.org/2000/svg">
<g clip-path="url(#clip0_2064_857)">
<path d="M12.9988 3.03833H3.21445C2.40997 3.03833 1.75781 3.56006 1.75781 4.20364V7.3002C1.75781 7.94379 2.40997 8.46552 3.21445 8.46552H12.9988C13.8033 8.46552 14.4555 7.94379 14.4555 7.3002V4.20364C14.4555 3.56006 13.8033 3.03833 12.9988 3.03833Z" fill="black"/>
<path d="M12.9988 9.70654H3.21445C2.40997 9.70654 1.75781 10.2283 1.75781 10.8719V17.464C1.75781 18.1076 2.40997 18.6294 3.21445 18.6294H12.9988C13.8033 18.6294 14.4555 18.1076 14.4555 17.464V10.8719C14.4555 10.2283 13.8033 9.70654 12.9988 9.70654Z" fill="black"/>
<path d="M21.7854 3.03833H17.8312C17.0267 3.03833 16.3745 3.56006 16.3745 4.20364V17.4643C16.3745 18.1079 17.0267 18.6296 17.8312 18.6296H21.7854C22.5899 18.6296 23.2421 18.1079 23.2421 17.4643V4.20364C23.2421 3.56006 22.5899 3.03833 21.7854 3.03833Z" fill="black"/>
</g>
<defs>
<clipPath id="clip0_2064_857">
<rect width="25" height="25" fill="white" transform="translate(0 0.833984)"/>
</clipPath>
</defs>
</svg>
