<svg width="33" height="38" viewBox="0 0 33 38" fill="none" xmlns="http://www.w3.org/2000/svg">
<g clip-path="url(#clip0_2064_760)">
<path d="M30.1935 13.5287H30.1918C29.7475 13.5287 29.3877 13.8422 29.3885 14.2285C29.3885 14.5204 29.3885 14.8235 29.3885 15.1391C29.3885 18.6024 29.3885 20.6927 28.6657 21.6544C28.0765 22.438 26.8377 22.6901 23.362 22.7334H23.007C22.9531 22.7334 22.9 22.732 22.8476 22.7313L24.4937 20.2241C25.3647 18.9775 24.9099 17.3467 23.4747 16.5848C22.0363 15.8208 20.1495 16.2147 19.2657 17.4676C18.5469 18.5047 17.7146 19.3218 17.1093 19.7226C16.9813 18.5996 16.9813 17.0807 16.9813 15.1391C16.9813 11.7911 16.9813 9.76996 17.6124 8.7573C18.1259 7.93321 19.1989 7.64338 22.0282 7.56376C22.4725 7.55119 22.8211 7.22854 22.8066 6.84303C22.7921 6.4652 22.4347 6.16699 22.0025 6.16699C21.9936 6.16699 21.9848 6.16699 21.9759 6.16699C18.9526 6.2522 17.1366 6.58393 16.1965 8.09174C15.4769 9.24617 15.3851 10.9405 15.373 13.8024C14.8402 13.7584 14.1214 13.7389 13.3341 13.8262C11.1439 14.0685 9.46564 15.0134 8.4812 16.5583C6.41575 19.7981 5.119 21.7682 5.10612 21.7878C4.88557 22.1223 5.01999 22.549 5.40556 22.7404C5.53193 22.8025 5.66877 22.8326 5.804 22.8326C6.08331 22.8326 6.35538 22.7061 6.50348 22.4806C6.51636 22.461 7.81794 20.4832 9.88984 17.2343C10.6199 16.0896 11.8313 15.4108 13.4919 15.2174C14.2381 15.1301 14.9191 15.1629 15.3714 15.2076C15.3714 17.2895 15.373 18.812 15.5228 19.9929H14.2566C13.8123 19.9929 13.4517 20.3058 13.4517 20.6913C13.4517 21.0768 13.8123 21.3897 14.2566 21.3897H16.38C16.405 21.3918 16.4307 21.3932 16.4565 21.3932C16.4911 21.3932 16.5257 21.3904 16.5611 21.3862C17.4208 21.352 18.3497 20.8023 19.3977 19.7045C20.1109 18.9565 20.6252 18.2183 20.6437 18.1918C21.0607 17.601 21.955 17.4145 22.6359 17.7762C23.3169 18.138 23.5326 18.9139 23.1149 19.5047L20.8764 22.9136C20.7886 22.9939 20.7226 23.0924 20.6872 23.202L20.2397 23.8843L20.2244 23.9088C18.1702 27.3455 11.8128 28.7723 11.7283 28.7905C11.2969 28.8841 11.0353 29.2633 11.1431 29.6376C11.2349 29.9547 11.5625 30.167 11.9231 30.167C11.9875 30.167 12.0535 30.16 12.1187 30.146C12.4085 30.0832 19.2456 28.56 21.6459 24.5645L21.9445 24.1099C22.2608 24.119 22.607 24.126 22.9925 24.1309H23.3757H23.3813C26.5423 24.0917 28.8685 23.9465 30.0164 22.4184C31 21.1089 31 18.9893 31 15.1405C31 14.8242 31 14.5204 31 14.2278C31 13.8422 30.6394 13.5308 30.1951 13.5308L30.1935 13.5287Z" fill="#4CB069"/>
<path d="M32.1034 9.21636C31.9054 6.45693 29.4377 4.23686 26.364 4.05228C26.011 4.03043 25.7055 4.27078 25.6818 4.58761C25.6581 4.90443 25.9252 5.17871 26.2782 5.19998C28.7132 5.34603 30.6677 7.10496 30.8241 9.29053C30.8458 9.59471 31.1277 9.82873 31.4628 9.82873C31.4769 9.82873 31.4903 9.82873 31.5044 9.82758C31.8574 9.80688 32.1258 9.53318 32.1034 9.21636Z" fill="#4CB069"/>
<path d="M26.0861 7.65039C27.4173 7.65039 28.5 8.62214 28.5 9.81699C28.5 10.1344 28.787 10.392 29.1406 10.392C29.4942 10.392 29.7812 10.1344 29.7812 9.81699C29.7812 7.98849 28.124 6.50039 26.0861 6.50039C25.7325 6.50039 25.4455 6.75799 25.4455 7.07539C25.4455 7.39279 25.7325 7.65039 26.0861 7.65039Z" fill="#4CB069"/>
</g>
<defs>
<clipPath id="clip0_2064_760">
<rect width="32.8" height="36.8" fill="white" transform="translate(0.100098 0.299988)"/>
</clipPath>
</defs>
</svg>
