<svg width="20" height="25" viewBox="0 0 20 25" fill="none" xmlns="http://www.w3.org/2000/svg">
<path d="M10.0001 3.01666V0.928324C10.0001 0.403324 9.37008 0.146658 9.00841 0.519991L5.74175 3.77499C5.50842 4.00832 5.50842 4.36999 5.74175 4.60332L8.99675 7.85832C9.37008 8.21999 10.0001 7.96332 10.0001 7.43832V5.34999C13.8617 5.34999 17.0001 8.48832 17.0001 12.35C17.0001 13.2717 16.8251 14.17 16.4867 14.975C16.3117 15.395 16.4401 15.8733 16.7551 16.1883C17.3501 16.7833 18.3534 16.5733 18.6684 15.7917C19.1001 14.73 19.3334 13.5633 19.3334 12.35C19.3334 7.19332 15.1567 3.01666 10.0001 3.01666ZM10.0001 19.35C6.13841 19.35 3.00008 16.2117 3.00008 12.35C3.00008 11.4283 3.17508 10.53 3.51341 9.72499C3.68841 9.30499 3.56008 8.82666 3.24508 8.51166C2.65008 7.91666 1.64675 8.12666 1.33175 8.90832C0.900082 9.96999 0.666748 11.1367 0.666748 12.35C0.666748 17.5067 4.84341 21.6833 10.0001 21.6833V23.7717C10.0001 24.2967 10.6301 24.5533 10.9917 24.18L14.2467 20.925C14.4801 20.6917 14.4801 20.33 14.2467 20.0967L10.9917 16.8417C10.6301 16.48 10.0001 16.7367 10.0001 17.2617V19.35Z" fill="#007435"/>
</svg>
