<svg width="22" height="24" viewBox="0 0 22 24" fill="none" xmlns="http://www.w3.org/2000/svg">
<path d="M11.5681 23.792H16.8881C19.1947 23.792 21.0681 21.9529 21.0681 19.6885V7.5609C21.0681 6.66559 20.7109 5.82251 20.0649 5.18834L16.4625 1.65189C15.8165 1.01771 14.9577 0.667053 14.0457 0.667053H5.11188C2.80528 0.667053 0.931885 2.50616 0.931885 4.77053V14.8427C0.931885 15.4582 1.44488 15.9618 2.07188 15.9618C2.69888 15.9618 3.21188 15.4582 3.21188 14.8427V4.7668C3.21188 3.7372 4.06308 2.90158 5.11188 2.90158H14.0457C14.3497 2.90158 14.6385 3.01723 14.8513 3.22986L18.4575 6.77004C18.6703 6.97895 18.7919 7.26619 18.7919 7.5609V19.6923C18.7919 20.7219 17.9407 21.5575 16.8919 21.5575H11.5719C10.9449 21.5575 10.4319 22.0611 10.4319 22.6766C10.4319 23.2921 10.9449 23.7957 11.5719 23.7957L11.5681 23.792Z" fill="#4CB069"/>
</svg>
