<svg width="525" height="346" viewBox="0 0 525 346" fill="none" xmlns="http://www.w3.org/2000/svg">
<rect width="525" height="346" rx="10" fill="#F9F9F9"/>
<rect x="15" y="13" width="495" height="45" rx="10" fill="white"/>
<path d="M39.3366 30.8182V41H37.9247L32.7493 33.5327H32.6548V41H31.1186V30.8182H32.5405L37.7209 38.2955H37.8153V30.8182H39.3366ZM41.4583 41V33.3636H42.9448V41H41.4583ZM42.209 32.1854C41.9505 32.1854 41.7284 32.0992 41.5428 31.9268C41.3605 31.7512 41.2694 31.5424 41.2694 31.3004C41.2694 31.0552 41.3605 30.8464 41.5428 30.674C41.7284 30.4983 41.9505 30.4105 42.209 30.4105C42.4675 30.4105 42.6879 30.4983 42.8702 30.674C43.0558 30.8464 43.1486 31.0552 43.1486 31.3004C43.1486 31.5424 43.0558 31.7512 42.8702 31.9268C42.6879 32.0992 42.4675 32.1854 42.209 32.1854ZM44.9446 41V33.3636H46.3714V34.6065H46.4659C46.625 34.1856 46.8852 33.8575 47.2464 33.6222C47.6077 33.3835 48.0402 33.2642 48.544 33.2642C49.0545 33.2642 49.482 33.3835 49.8267 33.6222C50.1747 33.8608 50.4316 34.1889 50.5973 34.6065H50.6768C50.8591 34.1989 51.1491 33.8741 51.5469 33.6321C51.9446 33.3868 52.4186 33.2642 52.9688 33.2642C53.6615 33.2642 54.2266 33.4813 54.6641 33.9155C55.1049 34.3497 55.3253 35.0043 55.3253 35.8793V41H53.8388V36.0185C53.8388 35.5014 53.6979 35.1269 53.4162 34.8949C53.1345 34.6629 52.7981 34.5469 52.407 34.5469C51.9231 34.5469 51.5469 34.696 51.2784 34.9943C51.0099 35.2893 50.8757 35.6688 50.8757 36.1328V41H49.3942V35.924C49.3942 35.5097 49.2649 35.1766 49.0064 34.9247C48.7479 34.6728 48.4115 34.5469 47.9972 34.5469C47.7154 34.5469 47.4553 34.6214 47.2166 34.7706C46.9813 34.9164 46.7907 35.1203 46.6449 35.3821C46.5024 35.6439 46.4311 35.9472 46.4311 36.2919V41H44.9446ZM57.437 41V30.8182H58.9235V34.6016H59.013C59.0991 34.4425 59.2234 34.2585 59.3858 34.0497C59.5482 33.8409 59.7736 33.6586 60.062 33.5028C60.3503 33.3438 60.7315 33.2642 61.2054 33.2642C61.8219 33.2642 62.3721 33.42 62.856 33.7315C63.3399 34.0431 63.7194 34.4922 63.9945 35.0788C64.2729 35.6655 64.4121 36.3714 64.4121 37.1967C64.4121 38.022 64.2746 38.7296 63.9995 39.3196C63.7244 39.9062 63.3465 40.3587 62.8659 40.6768C62.3854 40.9917 61.8368 41.1491 61.2203 41.1491C60.7563 41.1491 60.3768 41.0713 60.0819 40.9155C59.7902 40.7597 59.5615 40.5774 59.3958 40.3686C59.2301 40.1598 59.1025 39.9742 59.013 39.8118H58.8887V41H57.437ZM58.8936 37.1818C58.8936 37.7187 58.9715 38.1894 59.1273 38.5938C59.2831 38.9981 59.5085 39.3146 59.8034 39.5433C60.0984 39.7687 60.4597 39.8814 60.8873 39.8814C61.3314 39.8814 61.7026 39.7637 62.0009 39.5284C62.2992 39.2898 62.5246 38.9666 62.677 38.5589C62.8328 38.1513 62.9107 37.6922 62.9107 37.1818C62.9107 36.678 62.8345 36.2256 62.682 35.8246C62.5328 35.4235 62.3075 35.107 62.0059 34.875C61.7076 34.643 61.3347 34.527 60.8873 34.527C60.4564 34.527 60.0918 34.638 59.7935 34.8601C59.4985 35.0821 59.2748 35.392 59.1223 35.7898C58.9699 36.1875 58.8936 36.6515 58.8936 37.1818ZM69.3725 41.1541C68.6201 41.1541 67.9722 40.9934 67.4286 40.6719C66.8884 40.3471 66.4708 39.8913 66.1758 39.3047C65.8841 38.7147 65.7383 38.0237 65.7383 37.2315C65.7383 36.4493 65.8841 35.7599 66.1758 35.1634C66.4708 34.5668 66.8817 34.1011 67.4087 33.7663C67.939 33.4316 68.5588 33.2642 69.2681 33.2642C69.699 33.2642 70.1166 33.3355 70.521 33.478C70.9253 33.6205 71.2882 33.8442 71.6097 34.1491C71.9312 34.4541 72.1848 34.8501 72.3704 35.3374C72.556 35.8213 72.6488 36.4096 72.6488 37.1023V37.6293H66.5785V36.5156H71.1921C71.1921 36.1245 71.1126 35.7782 70.9535 35.4766C70.7944 35.1716 70.5707 34.9313 70.2823 34.7557C69.9973 34.58 69.6625 34.4922 69.2781 34.4922C68.8604 34.4922 68.4959 34.5949 68.1843 34.8004C67.8761 35.0026 67.6374 35.2678 67.4684 35.5959C67.3027 35.9207 67.2198 36.2737 67.2198 36.6548V37.5249C67.2198 38.0353 67.3093 38.4695 67.4883 38.8274C67.6706 39.1854 67.9241 39.4588 68.2489 39.6477C68.5737 39.8333 68.9532 39.9261 69.3874 39.9261C69.6692 39.9261 69.926 39.8864 70.158 39.8068C70.39 39.724 70.5906 39.6013 70.7596 39.4389C70.9286 39.2765 71.0579 39.076 71.1474 38.8374L72.5543 39.0909C72.4416 39.5052 72.2395 39.8681 71.9478 40.1797C71.6594 40.4879 71.2965 40.7282 70.859 40.9006C70.4248 41.0696 69.9293 41.1541 69.3725 41.1541ZM75.019 43.8636C74.7969 43.8636 74.5948 43.8454 74.4125 43.8089C74.2302 43.7758 74.0943 43.7393 74.0048 43.6996L74.3627 42.4815C74.6345 42.5545 74.8765 42.5859 75.0886 42.576C75.3007 42.5661 75.488 42.4865 75.6504 42.3374C75.8161 42.1882 75.9619 41.9446 76.0879 41.6065L76.2718 41.0994L73.4778 33.3636H75.0687L77.0027 39.2898H77.0822L79.0162 33.3636H80.612L77.465 42.0192C77.3192 42.4169 77.1336 42.7533 76.9082 43.0284C76.6828 43.3068 76.4144 43.5156 76.1028 43.6548C75.7913 43.794 75.43 43.8636 75.019 43.8636ZM86.6935 41H85.0629L88.7269 30.8182H90.5018L94.1658 41H92.5352L89.6566 32.6676H89.5771L86.6935 41ZM86.967 37.0128H92.2567V38.3054H86.967V37.0128ZM97.1724 30.8182V41H95.6362V30.8182H97.1724Z" fill="black"/>
<rect x="455.3" y="25.8" width="39.4" height="19.4" rx="9.7" fill="#00A76F" fill-opacity="0.07"/>
<rect x="455.3" y="25.8" width="39.4" height="19.4" rx="9.7" stroke="#00A76F" stroke-width="0.6"/>
<rect x="477" y="28" width="15" height="15" rx="7.5" fill="#00A76F"/>
<path d="M483.158 38.705C483.078 38.705 483.003 38.6924 482.933 38.6672C482.863 38.6424 482.798 38.6 482.738 38.54L480.158 35.96C480.048 35.85 479.996 35.7074 480 35.5322C480.006 35.3574 480.063 35.215 480.173 35.105C480.283 34.995 480.423 34.94 480.593 34.94C480.763 34.94 480.903 34.995 481.013 35.105L483.158 37.25L488.243 32.165C488.353 32.055 488.496 32 488.671 32C488.846 32 488.988 32.055 489.098 32.165C489.208 32.275 489.263 32.4174 489.263 32.5922C489.263 32.7674 489.208 32.91 489.098 33.02L483.578 38.54C483.518 38.6 483.453 38.6424 483.383 38.6672C483.313 38.6924 483.238 38.705 483.158 38.705Z" fill="white"/>
<g filter="url(#filter0_d_2064_610)">
<rect x="223" y="159" width="79.2" height="79.2" rx="7.92" fill="white"/>
<mask id="mask0_2064_610" style="mask-type:luminance" maskUnits="userSpaceOnUse" x="241" y="165" width="44" height="68">
<path d="M241 165H284.648V232.085H241V165Z" fill="white"/>
</mask>
<g mask="url(#mask0_2064_610)">
<path d="M273.261 221.74C280.216 218.565 288.2 206.332 282.6 182.324C278.072 169.635 267.702 170.198 264.245 166.246C263.601 165.536 262.704 165.121 261.753 165.067C260.48 165 259.126 165.696 258.537 166.702C255.697 171.578 251.182 171.578 246.519 177.446C240.262 185.338 240.464 197.879 242.044 206.36C243.357 213.447 250.177 222.357 255.697 225.666C257.921 227.006 257.653 226.121 259.354 229.551C259.998 230.851 261.739 232.66 263.401 231.842C264.285 231.413 264.566 230.529 264.741 229.712C265.062 228.319 266.562 224.795 273.261 221.74Z" fill="#C1FF72"/>
</g>
<path d="M275.047 212.566H270.189V195.252C270.189 192.333 269.666 190.328 268.619 189.237C267.571 188.146 266.117 187.6 264.258 187.6C262.826 187.6 261.47 187.95 260.188 188.647C258.909 189.346 258.001 190.33 257.465 191.6C256.928 192.87 256.659 194.669 256.659 196.994V212.566H251.828V184.084H256.175V188.11H256.285C257.306 186.553 258.562 185.386 260.056 184.608C261.549 183.828 263.281 183.438 265.253 183.438C266.754 183.438 268.238 183.706 269.705 184.243C271.175 184.78 272.324 185.587 273.155 186.663C273.988 187.736 274.511 188.883 274.726 190.099C274.939 191.314 275.047 192.959 275.047 195.036V212.566Z" fill="white"/>
</g>
<path d="M261.606 239L261.804 282.397C261.829 287.889 266.279 292.333 271.771 292.351L347.39 292.598" stroke="url(#paint0_linear_2064_610)" stroke-width="4"/>
<path d="M258 159L258.71 118.895C258.807 113.414 263.299 109.032 268.781 109.072L348 109.65" stroke="url(#paint1_linear_2064_610)" stroke-width="3"/>
<path d="M223 207H210C208.895 207 208 206.105 208 205V202C208 200.895 208.895 200 210 200H223V207Z" fill="#81D21B"/>
<rect opacity="0.5" x="208" y="205.5" width="32" height="4" transform="rotate(-180 208 205.5)" fill="#D9D9D9"/>
<path d="M223 199H210C208.895 199 208 198.105 208 197V194C208 192.895 208.895 192 210 192H223V199Z" fill="#00A76F"/>
<rect opacity="0.5" x="208" y="197.5" width="32" height="4" transform="rotate(-180 208 197.5)" fill="#D9D9D9"/>
<path d="M223 215H210C208.895 215 208 214.105 208 213V210C208 208.895 208.895 208 210 208H223V215Z" fill="#FFE500"/>
<rect x="208" y="213.5" width="32" height="4" transform="rotate(-180 208 213.5)" fill="#E0E0E0"/>
<rect x="302" y="172" width="20" height="4" fill="url(#paint2_linear_2064_610)"/>
<rect x="234" y="159" width="10" height="4" transform="rotate(-90 234 159)" fill="#E2FFBC"/>
<rect x="241" y="159" width="10" height="4" transform="rotate(-90 241 159)" fill="#E2FFBC"/>
<rect x="302" y="178" width="20" height="4" fill="url(#paint3_linear_2064_610)"/>
<rect x="302" y="184" width="20" height="4" fill="url(#paint4_linear_2064_610)"/>
<rect x="21" y="170" width="161.6" height="64.8" rx="6.4" fill="white"/>
<rect x="30.6016" y="176.4" width="23.04" height="23.04" rx="11.52" fill="#00A76F"/>
<path d="M42.1216 185.04V183.888C42.1216 183.254 41.6032 182.736 40.9696 182.736H37.5136C36.88 182.736 36.3616 183.254 36.3616 183.888V191.952C36.3616 192.585 36.88 193.104 37.5136 193.104H46.7296C47.3632 193.104 47.8816 192.585 47.8816 191.952V186.192C47.8816 185.558 47.3632 185.04 46.7296 185.04H42.1216ZM38.6656 191.952H37.5136V190.8H38.6656V191.952ZM38.6656 189.648H37.5136V188.496H38.6656V189.648ZM38.6656 187.344H37.5136V186.192H38.6656V187.344ZM38.6656 185.04H37.5136V183.888H38.6656V185.04ZM40.9696 191.952H39.8176V190.8H40.9696V191.952ZM40.9696 189.648H39.8176V188.496H40.9696V189.648ZM40.9696 187.344H39.8176V186.192H40.9696V187.344ZM40.9696 185.04H39.8176V183.888H40.9696V185.04ZM46.1536 191.952H42.1216V190.8H43.2736V189.648H42.1216V188.496H43.2736V187.344H42.1216V186.192H46.1536C46.4704 186.192 46.7296 186.451 46.7296 186.768V191.376C46.7296 191.693 46.4704 191.952 46.1536 191.952ZM45.5776 187.344H44.4256V188.496H45.5776V187.344ZM45.5776 189.648H44.4256V190.8H45.5776V189.648Z" fill="white"/>
<mask id="path-27-inside-1_2064_610" fill="white">
<path d="M71.4016 178H144.202V192H71.4016V178Z"/>
</mask>
<path d="M144.202 191.36H71.4016V192.64H144.202V191.36Z" fill="#212B36" mask="url(#path-27-inside-1_2064_610)"/>
<path d="M79.9255 180.854V189H78.6965V180.854H79.9255ZM88.2897 180.854V189H87.1602L83.0198 183.026H82.9442V189H81.7153V180.854H82.8528L86.9971 186.836H87.0727V180.854H88.2897ZM90.7944 180.854L93.0614 187.488H93.1529L95.42 180.854H96.7484L93.8171 189H92.3972L89.466 180.854H90.7944ZM100.566 189.111C99.9955 189.111 99.4917 189.013 99.0542 188.817C98.6193 188.621 98.2786 188.35 98.032 188.005C97.7854 187.661 97.6635 187.268 97.6661 186.828C97.6635 186.484 97.7337 186.167 97.8769 185.878C98.0228 185.586 98.2203 185.343 98.4695 185.15C98.7188 184.954 98.9972 184.829 99.3048 184.776V184.728C98.8991 184.63 98.5743 184.413 98.3303 184.076C98.0864 183.739 97.9657 183.352 97.9684 182.915C97.9657 182.498 98.0758 182.127 98.2985 181.801C98.5239 181.472 98.8328 181.214 99.2252 181.025C99.6176 180.837 100.064 180.743 100.566 180.743C101.061 180.743 101.504 180.838 101.894 181.029C102.286 181.218 102.595 181.476 102.821 181.805C103.046 182.131 103.16 182.501 103.163 182.915C103.16 183.352 103.035 183.739 102.789 184.076C102.542 184.413 102.221 184.63 101.826 184.728V184.776C102.131 184.829 102.406 184.954 102.65 185.15C102.896 185.343 103.092 185.586 103.238 185.878C103.387 186.167 103.462 186.484 103.465 186.828C103.462 187.268 103.338 187.661 103.091 188.005C102.845 188.35 102.502 188.621 102.065 188.817C101.63 189.013 101.13 189.111 100.566 189.111ZM100.566 188.105C100.902 188.105 101.194 188.049 101.441 187.938C101.687 187.824 101.878 187.666 102.013 187.465C102.149 187.26 102.217 187.022 102.22 186.749C102.217 186.465 102.143 186.214 101.997 185.997C101.854 185.78 101.659 185.609 101.413 185.484C101.166 185.359 100.884 185.297 100.566 185.297C100.245 185.297 99.9597 185.359 99.7104 185.484C99.4612 185.609 99.265 185.78 99.1218 185.997C98.9786 186.214 98.9084 186.465 98.911 186.749C98.9084 187.022 98.9733 187.26 99.1059 187.465C99.2411 187.666 99.4334 187.824 99.6826 187.938C99.9318 188.049 100.226 188.105 100.566 188.105ZM100.566 184.315C100.836 184.315 101.076 184.26 101.285 184.152C101.495 184.043 101.659 183.892 101.779 183.698C101.901 183.505 101.963 183.278 101.966 183.018C101.963 182.763 101.902 182.541 101.783 182.35C101.666 182.159 101.503 182.012 101.293 181.908C101.084 181.802 100.841 181.749 100.566 181.749C100.284 181.749 100.038 181.802 99.8258 181.908C99.6163 182.012 99.4532 182.159 99.3366 182.35C99.2199 182.541 99.1629 182.763 99.1656 183.018C99.1629 183.278 99.2212 183.505 99.3406 183.698C99.4599 183.892 99.6243 184.043 99.8337 184.152C100.046 184.26 100.29 184.315 100.566 184.315ZM107.598 180.743C107.962 180.746 108.32 180.812 108.672 180.942C109.025 181.072 109.343 181.284 109.627 181.578C109.913 181.873 110.141 182.27 110.311 182.771C110.483 183.27 110.571 183.89 110.573 184.633C110.573 185.346 110.502 185.981 110.359 186.538C110.215 187.092 110.01 187.56 109.742 187.942C109.477 188.324 109.155 188.614 108.776 188.813C108.396 189.012 107.97 189.111 107.495 189.111C107.01 189.111 106.579 189.016 106.202 188.825C105.826 188.634 105.52 188.37 105.284 188.033C105.048 187.694 104.9 187.304 104.842 186.864H106.055C106.135 187.214 106.296 187.498 106.54 187.715C106.787 187.93 107.105 188.037 107.495 188.037C108.092 188.037 108.557 187.777 108.891 187.258C109.225 186.735 109.393 186.006 109.396 185.07H109.332C109.195 185.298 109.022 185.494 108.815 185.659C108.611 185.823 108.382 185.951 108.127 186.041C107.873 186.131 107.601 186.176 107.312 186.176C106.843 186.176 106.416 186.061 106.031 185.83C105.647 185.599 105.341 185.282 105.113 184.879C104.885 184.476 104.771 184.016 104.771 183.499C104.771 182.985 104.887 182.518 105.121 182.099C105.357 181.68 105.685 181.349 106.107 181.105C106.531 180.858 107.028 180.738 107.598 180.743ZM107.602 181.777C107.292 181.777 107.012 181.854 106.763 182.008C106.517 182.159 106.322 182.364 106.178 182.624C106.035 182.881 105.964 183.168 105.964 183.483C105.964 183.799 106.033 184.085 106.171 184.342C106.311 184.597 106.502 184.8 106.743 184.951C106.987 185.099 107.266 185.174 107.578 185.174C107.812 185.174 108.029 185.129 108.231 185.038C108.432 184.948 108.609 184.824 108.76 184.665C108.911 184.503 109.029 184.32 109.114 184.116C109.199 183.912 109.241 183.697 109.241 183.471C109.241 183.172 109.169 182.893 109.026 182.636C108.886 182.379 108.692 182.172 108.446 182.016C108.199 181.857 107.918 181.777 107.602 181.777ZM114.846 189.111C114.3 189.111 113.812 189.017 113.382 188.829C112.955 188.641 112.617 188.379 112.368 188.045C112.122 187.709 111.989 187.319 111.97 186.876H113.219C113.235 187.117 113.316 187.327 113.462 187.504C113.61 187.679 113.804 187.815 114.043 187.91C114.281 188.005 114.546 188.053 114.838 188.053C115.159 188.053 115.443 187.998 115.689 187.886C115.938 187.775 116.133 187.62 116.274 187.421C116.414 187.219 116.485 186.987 116.485 186.725C116.485 186.452 116.414 186.212 116.274 186.005C116.136 185.795 115.933 185.631 115.665 185.512C115.4 185.392 115.079 185.333 114.703 185.333H114.015V184.33H114.703C115.005 184.33 115.27 184.276 115.498 184.167C115.729 184.059 115.909 183.908 116.039 183.714C116.169 183.518 116.234 183.288 116.234 183.026C116.234 182.774 116.177 182.555 116.063 182.37C115.952 182.181 115.793 182.034 115.586 181.928C115.382 181.822 115.14 181.769 114.862 181.769C114.597 181.769 114.349 181.818 114.118 181.916C113.89 182.012 113.704 182.15 113.561 182.33C113.418 182.508 113.341 182.721 113.331 182.97H112.141C112.155 182.53 112.285 182.143 112.531 181.809C112.78 181.475 113.109 181.214 113.518 181.025C113.926 180.837 114.379 180.743 114.878 180.743C115.4 180.743 115.851 180.845 116.23 181.049C116.612 181.251 116.906 181.52 117.113 181.857C117.322 182.193 117.426 182.562 117.423 182.962C117.426 183.418 117.299 183.805 117.041 184.124C116.787 184.442 116.447 184.655 116.023 184.764V184.828C116.564 184.91 116.983 185.125 117.28 185.472C117.58 185.819 117.728 186.25 117.725 186.765C117.728 187.213 117.604 187.614 117.352 187.97C117.102 188.325 116.762 188.605 116.329 188.809C115.897 189.01 115.403 189.111 114.846 189.111ZM121.981 189.111C121.411 189.111 120.907 189.013 120.47 188.817C120.035 188.621 119.694 188.35 119.448 188.005C119.201 187.661 119.079 187.268 119.082 186.828C119.079 186.484 119.149 186.167 119.293 185.878C119.438 185.586 119.636 185.343 119.885 185.15C120.134 184.954 120.413 184.829 120.72 184.776V184.728C120.315 184.63 119.99 184.413 119.746 184.076C119.502 183.739 119.381 183.352 119.384 182.915C119.381 182.498 119.491 182.127 119.714 181.801C119.94 181.472 120.248 181.214 120.641 181.025C121.033 180.837 121.48 180.743 121.981 180.743C122.477 180.743 122.92 180.838 123.31 181.029C123.702 181.218 124.011 181.476 124.236 181.805C124.462 182.131 124.576 182.501 124.578 182.915C124.576 183.352 124.451 183.739 124.204 184.076C123.958 184.413 123.637 184.63 123.242 184.728V184.776C123.547 184.829 123.821 184.954 124.065 185.15C124.312 185.343 124.508 185.586 124.654 185.878C124.802 186.167 124.878 186.484 124.881 186.828C124.878 187.268 124.753 187.661 124.507 188.005C124.26 188.35 123.918 188.621 123.481 188.817C123.046 189.013 122.546 189.111 121.981 189.111ZM121.981 188.105C122.318 188.105 122.61 188.049 122.856 187.938C123.103 187.824 123.294 187.666 123.429 187.465C123.564 187.26 123.633 187.022 123.636 186.749C123.633 186.465 123.559 186.214 123.413 185.997C123.27 185.78 123.075 185.609 122.828 185.484C122.582 185.359 122.299 185.297 121.981 185.297C121.66 185.297 121.375 185.359 121.126 185.484C120.877 185.609 120.681 185.78 120.537 185.997C120.394 186.214 120.324 186.465 120.327 186.749C120.324 187.022 120.389 187.26 120.522 187.465C120.657 187.666 120.849 187.824 121.098 187.938C121.347 188.049 121.642 188.105 121.981 188.105ZM121.981 184.315C122.252 184.315 122.492 184.26 122.701 184.152C122.911 184.043 123.075 183.892 123.194 183.698C123.316 183.505 123.379 183.278 123.381 183.018C123.379 182.763 123.318 182.541 123.198 182.35C123.082 182.159 122.918 182.012 122.709 181.908C122.5 181.802 122.257 181.749 121.981 181.749C121.7 181.749 121.454 181.802 121.241 181.908C121.032 182.012 120.869 182.159 120.752 182.35C120.636 182.541 120.579 182.763 120.581 183.018C120.579 183.278 120.637 183.505 120.756 183.698C120.875 183.892 121.04 184.043 121.249 184.152C121.461 184.26 121.705 184.315 121.981 184.315ZM126.305 189V188.109L129.062 185.253C129.356 184.943 129.599 184.671 129.79 184.438C129.983 184.202 130.128 183.978 130.223 183.766C130.319 183.554 130.366 183.328 130.366 183.09C130.366 182.819 130.303 182.586 130.175 182.39C130.048 182.191 129.874 182.038 129.654 181.932C129.434 181.823 129.186 181.769 128.911 181.769C128.619 181.769 128.364 181.829 128.147 181.948C127.93 182.067 127.762 182.236 127.646 182.453C127.529 182.671 127.471 182.925 127.471 183.217H126.298C126.298 182.721 126.412 182.287 126.64 181.916C126.868 181.545 127.18 181.257 127.578 181.053C127.976 180.846 128.428 180.743 128.934 180.743C129.446 180.743 129.897 180.845 130.287 181.049C130.679 181.251 130.985 181.527 131.205 181.877C131.426 182.224 131.536 182.616 131.536 183.054C131.536 183.356 131.479 183.652 131.365 183.941C131.253 184.23 131.058 184.552 130.78 184.907C130.501 185.26 130.114 185.688 129.619 186.192L128 187.886V187.946H131.667V189H126.305ZM136.265 180.854V189H135.032V182.087H134.984L133.035 183.36V182.183L135.067 180.854H136.265Z" fill="#212B36"/>
<rect x="71.4016" y="198.4" width="40" height="4" rx="2" fill="#E8E8E8"/>
<rect x="71.4016" y="208.8" width="72.8" height="4" rx="2" fill="#E8E8E8"/>
<rect x="71.4016" y="219.2" width="57.6" height="4" rx="2" fill="#D9D9D9"/>
<rect x="31" y="176" width="23.04" height="23.04" rx="11.52" fill="#00A76F"/>
<path d="M46.0727 191.02H40.8621C40.6016 191.02 40.3787 190.922 40.1933 190.727C40.0076 190.531 39.9148 190.295 39.9148 190.02V183.02C39.9148 182.745 40.0076 182.51 40.1933 182.314C40.3787 182.118 40.6016 182.02 40.8621 182.02H43.7871C43.9134 182.02 44.0339 182.045 44.1485 182.095C44.2629 182.145 44.3634 182.216 44.4503 182.308L46.7477 184.733C46.8345 184.824 46.9016 184.93 46.949 185.051C46.9963 185.172 47.02 185.299 47.02 185.433V190.02C47.02 190.295 46.9273 190.531 46.742 190.727C46.5563 190.922 46.3332 191.02 46.0727 191.02ZM38.9674 193.02C38.7069 193.02 38.4839 192.922 38.2985 192.727C38.1129 192.531 38.02 192.295 38.02 192.02V185.52C38.02 185.378 38.0655 185.26 38.1564 185.164C38.2471 185.068 38.3595 185.02 38.4937 185.02C38.6279 185.02 38.7405 185.068 38.8314 185.164C38.9221 185.26 38.9674 185.378 38.9674 185.52V192.02H43.7042C43.8384 192.02 43.951 192.068 44.042 192.164C44.1326 192.26 44.1779 192.378 44.1779 192.52C44.1779 192.662 44.1326 192.78 44.042 192.876C43.951 192.972 43.8384 193.02 43.7042 193.02H38.9674ZM44.1779 185.52H46.0727L43.7042 183.02V185.02C43.7042 185.162 43.7497 185.281 43.8407 185.377C43.9313 185.472 44.0437 185.52 44.1779 185.52Z" fill="white"/>
<rect x="337" y="80" width="161.6" height="64.8" rx="6.4" fill="white"/>
<rect x="346.602" y="86.3998" width="23.04" height="23.04" rx="11.52" fill="#00A76F"/>
<path d="M358.122 95.0398V93.8878C358.122 93.2542 357.603 92.7358 356.97 92.7358H353.514C352.88 92.7358 352.362 93.2542 352.362 93.8878V101.952C352.362 102.585 352.88 103.104 353.514 103.104H362.73C363.363 103.104 363.882 102.585 363.882 101.952V96.1918C363.882 95.5582 363.363 95.0398 362.73 95.0398H358.122ZM354.666 101.952H353.514V100.8H354.666V101.952ZM354.666 99.6478H353.514V98.4958H354.666V99.6478ZM354.666 97.3438H353.514V96.1918H354.666V97.3438ZM354.666 95.0398H353.514V93.8878H354.666V95.0398ZM356.97 101.952H355.818V100.8H356.97V101.952ZM356.97 99.6478H355.818V98.4958H356.97V99.6478ZM356.97 97.3438H355.818V96.1918H356.97V97.3438ZM356.97 95.0398H355.818V93.8878H356.97V95.0398ZM362.154 101.952H358.122V100.8H359.274V99.6478H358.122V98.4958H359.274V97.3438H358.122V96.1918H362.154C362.47 96.1918 362.73 96.451 362.73 96.7678V101.376C362.73 101.693 362.47 101.952 362.154 101.952ZM361.578 97.3438H360.426V98.4958H361.578V97.3438ZM361.578 99.6478H360.426V100.8H361.578V99.6478Z" fill="white"/>
<mask id="path-38-inside-2_2064_610" fill="white">
<path d="M387.402 87.9998H443.402V102H387.402V87.9998Z"/>
</mask>
<path d="M443.402 101.36H387.402V102.64H443.402V101.36Z" fill="#212B36" mask="url(#path-38-inside-2_2064_610)"/>
<path d="M386.062 93.5032H384.821C384.773 93.2381 384.684 93.0047 384.554 92.8032C384.425 92.6017 384.265 92.4307 384.077 92.2901C383.889 92.1496 383.678 92.0436 383.445 91.972C383.214 91.9004 382.969 91.8646 382.709 91.8646C382.24 91.8646 381.819 91.9826 381.448 92.2186C381.08 92.4545 380.788 92.8006 380.573 93.2566C380.361 93.7127 380.255 94.2695 380.255 94.9271C380.255 95.59 380.361 96.1494 380.573 96.6055C380.788 97.0615 381.081 97.4062 381.452 97.6396C381.823 97.8729 382.241 97.9896 382.705 97.9896C382.962 97.9896 383.206 97.9551 383.437 97.8862C383.67 97.8146 383.881 97.7098 384.069 97.572C384.257 97.4341 384.417 97.2657 384.546 97.0668C384.679 96.8653 384.771 96.6347 384.821 96.3748L386.062 96.3788C385.996 96.7792 385.867 97.1477 385.676 97.4845C385.488 97.8186 385.245 98.1076 384.948 98.3515C384.654 98.5928 384.317 98.7797 383.938 98.9123C383.559 99.0449 383.145 99.1112 382.697 99.1112C381.992 99.1112 381.363 98.9441 380.812 98.61C380.26 98.2733 379.825 97.792 379.507 97.1663C379.192 96.5405 379.034 95.7941 379.034 94.9271C379.034 94.0574 379.193 93.311 379.511 92.6879C379.829 92.0621 380.264 91.5822 380.816 91.2481C381.367 90.9114 381.994 90.743 382.697 90.743C383.129 90.743 383.532 90.8053 383.906 90.9299C384.283 91.0519 384.621 91.2322 384.92 91.4708C385.22 91.7068 385.468 91.9958 385.664 92.3379C385.86 92.6773 385.993 93.0657 386.062 93.5032ZM390.01 99.1231C389.438 99.1231 388.938 98.9918 388.511 98.7293C388.084 98.4668 387.753 98.0996 387.517 97.6276C387.281 97.1557 387.163 96.6042 387.163 95.9731C387.163 95.3394 387.281 94.7852 387.517 94.3106C387.753 93.836 388.084 93.4674 388.511 93.2049C388.938 92.9424 389.438 92.8112 390.01 92.8112C390.583 92.8112 391.083 92.9424 391.51 93.2049C391.937 93.4674 392.268 93.836 392.504 94.3106C392.74 94.7852 392.858 95.3394 392.858 95.9731C392.858 96.6042 392.74 97.1557 392.504 97.6276C392.268 98.0996 391.937 98.4668 391.51 98.7293C391.083 98.9918 390.583 99.1231 390.01 99.1231ZM390.014 98.1248C390.385 98.1248 390.693 98.0267 390.937 97.8305C391.181 97.6343 391.361 97.3731 391.478 97.047C391.597 96.7208 391.657 96.3615 391.657 95.9691C391.657 95.5793 391.597 95.2214 391.478 94.8953C391.361 94.5665 391.181 94.3026 390.937 94.1038C390.693 93.9049 390.385 93.8055 390.014 93.8055C389.64 93.8055 389.33 93.9049 389.084 94.1038C388.84 94.3026 388.658 94.5665 388.539 94.8953C388.422 95.2214 388.364 95.5793 388.364 95.9691C388.364 96.3615 388.422 96.7208 388.539 97.047C388.658 97.3731 388.84 97.6343 389.084 97.8305C389.33 98.0267 389.64 98.1248 390.014 98.1248ZM395.375 95.3725V98.9998H394.185V92.8907H395.327V93.885H395.402C395.543 93.5615 395.763 93.3017 396.063 93.1055C396.365 92.9093 396.745 92.8112 397.204 92.8112C397.62 92.8112 397.985 92.8987 398.298 93.0737C398.611 93.246 398.853 93.5032 399.026 93.8453C399.198 94.1873 399.284 94.6102 399.284 95.114V98.9998H398.095V95.2572C398.095 94.8144 397.98 94.4684 397.749 94.2191C397.518 93.9672 397.202 93.8413 396.798 93.8413C396.523 93.8413 396.277 93.9009 396.063 94.0203C395.851 94.1396 395.682 94.3146 395.558 94.5453C395.436 94.7733 395.375 95.049 395.375 95.3725ZM403.731 92.8907V93.8453H400.394V92.8907H403.731ZM401.289 91.4271H402.478V97.2061C402.478 97.4367 402.512 97.6104 402.581 97.7271C402.65 97.8411 402.739 97.9193 402.848 97.9617C402.959 98.0015 403.08 98.0214 403.21 98.0214C403.305 98.0214 403.389 98.0148 403.46 98.0015C403.532 97.9882 403.588 97.9776 403.627 97.9697L403.842 98.9521C403.773 98.9786 403.675 99.0051 403.548 99.0316C403.421 99.0608 403.262 99.0767 403.071 99.0793C402.758 99.0847 402.466 99.029 402.196 98.9123C401.925 98.7956 401.706 98.6153 401.539 98.3714C401.372 98.1275 401.289 97.8212 401.289 97.4526V91.4271ZM405.046 98.9998V92.8907H406.196V93.8612H406.259C406.371 93.5324 406.567 93.2739 406.848 93.0856C407.132 92.8947 407.453 92.7992 407.811 92.7992C407.885 92.7992 407.972 92.8019 408.073 92.8072C408.176 92.8125 408.257 92.8191 408.316 92.8271V93.9646C408.268 93.9513 408.183 93.9367 408.061 93.9208C407.939 93.9023 407.817 93.893 407.695 93.893C407.414 93.893 407.164 93.9526 406.944 94.072C406.726 94.1886 406.554 94.3517 406.426 94.5612C406.299 94.768 406.236 95.004 406.236 95.2691V98.9998H405.046ZM411.068 99.135C410.681 99.135 410.331 99.0634 410.018 98.9203C409.705 98.7744 409.457 98.5636 409.274 98.2879C409.094 98.0121 409.004 97.674 409.004 97.2737C409.004 96.929 409.07 96.6453 409.203 96.4225C409.335 96.1998 409.514 96.0235 409.74 95.8936C409.965 95.7636 410.217 95.6655 410.495 95.5992C410.774 95.5329 411.057 95.4826 411.346 95.4481C411.712 95.4057 412.009 95.3712 412.237 95.3447C412.465 95.3155 412.631 95.2691 412.734 95.2055C412.838 95.1418 412.89 95.0384 412.89 94.8953V94.8674C412.89 94.5201 412.791 94.2509 412.595 94.06C412.402 93.8691 412.113 93.7737 411.728 93.7737C411.328 93.7737 411.012 93.8625 410.782 94.0401C410.554 94.2151 410.396 94.41 410.308 94.6248L409.191 94.3703C409.323 93.999 409.517 93.6994 409.771 93.4714C410.029 93.2407 410.324 93.0737 410.658 92.9703C410.992 92.8642 411.344 92.8112 411.712 92.8112C411.956 92.8112 412.215 92.8403 412.488 92.8987C412.764 92.9543 413.021 93.0578 413.259 93.2089C413.501 93.36 413.698 93.5761 413.852 93.8572C414.006 94.1356 414.083 94.4975 414.083 94.943V98.9998H412.921V98.1646H412.874C412.797 98.3184 412.681 98.4695 412.528 98.618C412.374 98.7665 412.176 98.8898 411.935 98.9879C411.694 99.086 411.405 99.135 411.068 99.135ZM411.326 98.1805C411.655 98.1805 411.936 98.1155 412.17 97.9856C412.406 97.8557 412.585 97.686 412.707 97.4765C412.831 97.2644 412.894 97.0377 412.894 96.7964V96.0089C412.851 96.0513 412.769 96.0911 412.647 96.1282C412.528 96.1627 412.391 96.1932 412.237 96.2197C412.083 96.2436 411.934 96.2661 411.788 96.2873C411.642 96.3059 411.52 96.3218 411.422 96.335C411.191 96.3642 410.98 96.4132 410.79 96.4822C410.601 96.5511 410.45 96.6506 410.336 96.7805C410.225 96.9078 410.169 97.0775 410.169 97.2896C410.169 97.5839 410.278 97.8066 410.495 97.9578C410.713 98.1062 410.99 98.1805 411.326 98.1805ZM418.24 99.1231C417.649 99.1231 417.14 98.9892 416.713 98.7214C416.288 98.4509 415.962 98.0784 415.734 97.6038C415.506 97.1292 415.392 96.5856 415.392 95.9731C415.392 95.3526 415.509 94.8051 415.742 94.3305C415.976 93.8532 416.304 93.4807 416.729 93.2129C417.153 92.9451 417.653 92.8112 418.228 92.8112C418.692 92.8112 419.106 92.8973 419.469 93.0697C419.832 93.2394 420.125 93.478 420.348 93.7856C420.573 94.0932 420.707 94.4525 420.75 94.8634H419.592C419.529 94.5771 419.383 94.3305 419.155 94.1237C418.929 93.9168 418.627 93.8134 418.248 93.8134C417.916 93.8134 417.626 93.9009 417.377 94.0759C417.13 94.2483 416.938 94.4949 416.8 94.8157C416.662 95.1339 416.593 95.5104 416.593 95.9453C416.593 96.3907 416.661 96.7752 416.796 97.0987C416.931 97.4222 417.122 97.6727 417.369 97.8504C417.618 98.028 417.911 98.1168 418.248 98.1168C418.473 98.1168 418.677 98.0757 418.86 97.9936C419.046 97.9087 419.201 97.7881 419.326 97.6316C419.453 97.4752 419.542 97.2869 419.592 97.0668H420.75C420.707 97.4619 420.579 97.8146 420.364 98.1248C420.149 98.435 419.861 98.679 419.501 98.8566C419.143 99.0343 418.723 99.1231 418.24 99.1231ZM424.873 92.8907V93.8453H421.536V92.8907H424.873ZM422.431 91.4271H423.62V97.2061C423.62 97.4367 423.655 97.6104 423.724 97.7271C423.793 97.8411 423.881 97.9193 423.99 97.9617C424.101 98.0015 424.222 98.0214 424.352 98.0214C424.447 98.0214 424.531 98.0148 424.603 98.0015C424.674 97.9882 424.73 97.9776 424.77 97.9697L424.984 98.9521C424.915 98.9786 424.817 99.0051 424.69 99.0316C424.563 99.0608 424.404 99.0767 424.213 99.0793C423.9 99.0847 423.608 99.029 423.338 98.9123C423.067 98.7956 422.849 98.6153 422.682 98.3714C422.515 98.1275 422.431 97.8212 422.431 97.4526V91.4271ZM430.552 98.9998V100.01H425.377V98.9998H430.552ZM433.2 90.8543V98.9998H431.968V92.0873H431.92L429.971 93.36V92.1828L432.003 90.8543H433.2ZM438.24 99.135C437.611 99.1324 437.074 98.9667 436.629 98.6379C436.183 98.3091 435.843 97.8305 435.607 97.2021C435.371 96.5737 435.253 95.8167 435.253 94.9311C435.253 94.0481 435.371 93.2937 435.607 92.668C435.845 92.0422 436.187 91.565 436.633 91.2362C437.081 90.9074 437.617 90.743 438.24 90.743C438.863 90.743 439.397 90.9087 439.843 91.2401C440.288 91.5689 440.629 92.0462 440.865 92.672C441.103 93.2951 441.223 94.0481 441.223 94.9311C441.223 95.8193 441.105 96.5776 440.869 97.2061C440.633 97.8318 440.292 98.3104 439.846 98.6418C439.401 98.9706 438.865 99.135 438.24 99.135ZM438.24 98.0731C438.791 98.0731 439.222 97.804 439.532 97.2657C439.845 96.7275 440.002 95.9492 440.002 94.9311C440.002 94.2549 439.93 93.6835 439.787 93.2168C439.646 92.7475 439.443 92.3922 439.178 92.1509C438.916 91.907 438.603 91.785 438.24 91.785C437.691 91.785 437.26 92.0555 436.947 92.5964C436.634 93.1373 436.476 93.9155 436.474 94.9311C436.474 95.6098 436.544 96.1839 436.685 96.6532C436.828 97.1199 437.031 97.4739 437.293 97.7151C437.556 97.9538 437.871 98.0731 438.24 98.0731ZM445.342 90.743C445.705 90.7456 446.063 90.8119 446.416 90.9418C446.769 91.0718 447.087 91.2839 447.371 91.5782C447.657 91.8725 447.885 92.2703 448.055 92.7714C448.227 93.2699 448.314 93.8903 448.317 94.6328C448.317 95.346 448.246 95.9811 448.102 96.5379C447.959 97.092 447.754 97.56 447.486 97.9418C447.221 98.3237 446.899 98.614 446.519 98.8129C446.14 99.0117 445.713 99.1112 445.239 99.1112C444.753 99.1112 444.323 99.0157 443.946 98.8248C443.57 98.6339 443.263 98.3701 443.027 98.0333C442.791 97.6939 442.644 97.3042 442.586 96.864H443.799C443.878 97.214 444.04 97.4977 444.284 97.7151C444.531 97.9299 444.849 98.0373 445.239 98.0373C445.835 98.0373 446.301 97.7775 446.635 97.2578C446.969 96.7354 447.137 96.0062 447.14 95.0703H447.076C446.938 95.2983 446.766 95.4945 446.559 95.6589C446.355 95.8233 446.126 95.9506 445.871 96.0407C445.617 96.1309 445.345 96.1759 445.056 96.1759C444.586 96.1759 444.16 96.0606 443.775 95.8299C443.391 95.5992 443.084 95.2824 442.856 94.8793C442.628 94.4763 442.514 94.0163 442.514 93.4992C442.514 92.9848 442.631 92.5182 442.864 92.0992C443.1 91.6803 443.429 91.3489 443.851 91.1049C444.275 90.8583 444.772 90.7377 445.342 90.743ZM445.346 91.7771C445.036 91.7771 444.756 91.854 444.507 92.0078C444.26 92.1589 444.065 92.3644 443.922 92.6242C443.779 92.8814 443.707 93.1678 443.707 93.4833C443.707 93.7989 443.776 94.0852 443.914 94.3424C444.055 94.597 444.246 94.7998 444.487 94.9509C444.731 95.0994 445.009 95.1737 445.322 95.1737C445.556 95.1737 445.773 95.1286 445.974 95.0384C446.176 94.9483 446.352 94.8237 446.503 94.6646C446.655 94.5028 446.773 94.3199 446.857 94.1157C446.942 93.9115 446.985 93.6968 446.985 93.4714C446.985 93.1718 446.913 92.8934 446.77 92.6362C446.629 92.379 446.436 92.1721 446.189 92.0157C445.943 91.8566 445.662 91.7771 445.346 91.7771Z" fill="#212B36"/>
<rect x="387.402" y="108.4" width="40" height="4" rx="2" fill="#E8E8E8"/>
<rect x="387.402" y="118.8" width="72.8" height="4" rx="2" fill="#E8E8E8"/>
<rect x="387.402" y="129.2" width="57.6" height="4" rx="2" fill="#D9D9D9"/>
<rect x="484.202" y="81.5998" width="12" height="12" rx="6" fill="#00A76F"/>
<path d="M489.128 90.1638C489.064 90.1638 489.004 90.1537 488.948 90.1336C488.892 90.1137 488.84 90.0798 488.792 90.0318L486.728 87.9678C486.64 87.8798 486.598 87.7657 486.602 87.6256C486.606 87.4857 486.652 87.3718 486.74 87.2838C486.828 87.1958 486.94 87.1518 487.076 87.1518C487.212 87.1518 487.324 87.1958 487.412 87.2838L489.128 88.9998L493.196 84.9318C493.284 84.8438 493.398 84.7998 493.538 84.7998C493.678 84.7998 493.792 84.8438 493.88 84.9318C493.968 85.0198 494.012 85.1337 494.012 85.2736C494.012 85.4137 493.968 85.5278 493.88 85.6158L489.464 90.0318C489.416 90.0798 489.364 90.1137 489.308 90.1336C489.252 90.1537 489.192 90.1638 489.128 90.1638Z" fill="white"/>
<rect x="346" y="86" width="23.04" height="23.04" rx="11.52" fill="#00A76F"/>
<path d="M361.073 101.02H355.862C355.602 101.02 355.379 100.922 355.193 100.727C355.008 100.531 354.915 100.295 354.915 100.02V93.02C354.915 92.745 355.008 92.5095 355.193 92.3135C355.379 92.1178 355.602 92.02 355.862 92.02H358.787C358.913 92.02 359.034 92.045 359.149 92.095C359.263 92.145 359.363 92.2158 359.45 92.3075L361.748 94.7325C361.834 94.8242 361.902 94.9303 361.949 95.051C361.996 95.172 362.02 95.2992 362.02 95.4325V100.02C362.02 100.295 361.927 100.531 361.742 100.727C361.556 100.922 361.333 101.02 361.073 101.02ZM353.967 103.02C353.707 103.02 353.484 102.922 353.299 102.727C353.113 102.531 353.02 102.295 353.02 102.02V95.52C353.02 95.3783 353.065 95.2595 353.156 95.1635C353.247 95.0678 353.359 95.02 353.494 95.02C353.628 95.02 353.74 95.0678 353.831 95.1635C353.922 95.2595 353.967 95.3783 353.967 95.52V102.02H358.704C358.838 102.02 358.951 102.068 359.042 102.164C359.133 102.26 359.178 102.378 359.178 102.52C359.178 102.662 359.133 102.78 359.042 102.876C358.951 102.972 358.838 103.02 358.704 103.02H353.967ZM359.178 95.52H361.073L358.704 93.02V95.02C358.704 95.1617 358.75 95.2805 358.841 95.3765C358.931 95.4722 359.044 95.52 359.178 95.52Z" fill="white"/>
<rect x="337" y="168" width="161.6" height="64.8" rx="6.4" fill="white"/>
<rect x="346.602" y="174.4" width="23.04" height="23.04" rx="11.52" fill="#00A76F"/>
<path d="M358.122 183.04V181.888C358.122 181.254 357.603 180.736 356.97 180.736H353.514C352.88 180.736 352.362 181.254 352.362 181.888V189.952C352.362 190.585 352.88 191.104 353.514 191.104H362.73C363.363 191.104 363.882 190.585 363.882 189.952V184.192C363.882 183.558 363.363 183.04 362.73 183.04H358.122ZM354.666 189.952H353.514V188.8H354.666V189.952ZM354.666 187.648H353.514V186.496H354.666V187.648ZM354.666 185.344H353.514V184.192H354.666V185.344ZM354.666 183.04H353.514V181.888H354.666V183.04ZM356.97 189.952H355.818V188.8H356.97V189.952ZM356.97 187.648H355.818V186.496H356.97V187.648ZM356.97 185.344H355.818V184.192H356.97V185.344ZM356.97 183.04H355.818V181.888H356.97V183.04ZM362.154 189.952H358.122V188.8H359.274V187.648H358.122V186.496H359.274V185.344H358.122V184.192H362.154C362.47 184.192 362.73 184.451 362.73 184.768V189.376C362.73 189.693 362.47 189.952 362.154 189.952ZM361.578 185.344H360.426V186.496H361.578V185.344ZM361.578 187.648H360.426V188.8H361.578V187.648Z" fill="white"/>
<mask id="path-51-inside-3_2064_610" fill="white">
<path d="M387.402 176H443.402V190H387.402V176Z"/>
</mask>
<path d="M443.402 189.36H387.402V190.64H443.402V189.36Z" fill="#212B36" mask="url(#path-51-inside-3_2064_610)"/>
<path d="M379.296 187V178.854H382.2C382.834 178.854 383.359 178.97 383.775 179.2C384.191 179.431 384.503 179.747 384.71 180.147C384.916 180.545 385.02 180.993 385.02 181.491C385.02 181.992 384.915 182.443 384.706 182.844C384.499 183.241 384.186 183.557 383.767 183.79C383.351 184.021 382.827 184.136 382.196 184.136H380.199V183.094H382.085C382.485 183.094 382.81 183.025 383.059 182.887C383.308 182.747 383.491 182.556 383.608 182.315C383.725 182.073 383.783 181.799 383.783 181.491C383.783 181.184 383.725 180.911 383.608 180.672C383.491 180.433 383.307 180.246 383.055 180.111C382.806 179.976 382.477 179.908 382.069 179.908H380.525V187H379.296ZM393.536 182.927C393.536 183.797 393.377 184.544 393.059 185.17C392.741 185.793 392.304 186.273 391.75 186.61C391.199 186.944 390.572 187.111 389.869 187.111C389.164 187.111 388.534 186.944 387.98 186.61C387.428 186.273 386.994 185.792 386.675 185.166C386.357 184.541 386.198 183.794 386.198 182.927C386.198 182.057 386.357 181.311 386.675 180.688C386.994 180.062 387.428 179.582 387.98 179.248C388.534 178.911 389.164 178.743 389.869 178.743C390.572 178.743 391.199 178.911 391.75 179.248C392.304 179.582 392.741 180.062 393.059 180.688C393.377 181.311 393.536 182.057 393.536 182.927ZM392.319 182.927C392.319 182.264 392.212 181.706 391.997 181.253C391.785 180.797 391.493 180.452 391.122 180.219C390.753 179.983 390.336 179.865 389.869 179.865C389.4 179.865 388.981 179.983 388.612 180.219C388.244 180.452 387.952 180.797 387.737 181.253C387.525 181.706 387.419 182.264 387.419 182.927C387.419 183.59 387.525 184.149 387.737 184.605C387.952 185.059 388.244 185.404 388.612 185.64C388.981 185.873 389.4 185.99 389.869 185.99C390.336 185.99 390.753 185.873 391.122 185.64C391.493 185.404 391.785 185.059 391.997 184.605C392.212 184.149 392.319 183.59 392.319 182.927ZM397.705 187H395.068V178.854H397.789C398.587 178.854 399.272 179.017 399.845 179.344C400.418 179.667 400.857 180.132 401.162 180.74C401.469 181.344 401.623 182.069 401.623 182.915C401.623 183.764 401.468 184.493 401.158 185.103C400.85 185.712 400.405 186.182 399.821 186.511C399.238 186.837 398.533 187 397.705 187ZM396.297 185.926H397.638C398.258 185.926 398.774 185.809 399.185 185.576C399.596 185.34 399.903 184.999 400.108 184.554C400.312 184.106 400.414 183.559 400.414 182.915C400.414 182.276 400.312 181.734 400.108 181.288C399.906 180.843 399.605 180.505 399.205 180.274C398.804 180.044 398.307 179.928 397.713 179.928H396.297V185.926ZM406.97 187V188.01H401.796V187H406.97ZM409.619 178.854V187H408.386V180.087H408.339L406.39 181.36V180.183L408.422 178.854H409.619ZM414.658 187.135C414.03 187.132 413.493 186.967 413.048 186.638C412.602 186.309 412.261 185.83 412.025 185.202C411.789 184.574 411.671 183.817 411.671 182.931C411.671 182.048 411.789 181.294 412.025 180.668C412.264 180.042 412.606 179.565 413.052 179.236C413.5 178.907 414.035 178.743 414.658 178.743C415.282 178.743 415.816 178.909 416.261 179.24C416.707 179.569 417.047 180.046 417.283 180.672C417.522 181.295 417.641 182.048 417.641 182.931C417.641 183.819 417.523 184.578 417.287 185.206C417.051 185.832 416.711 186.31 416.265 186.642C415.82 186.971 415.284 187.135 414.658 187.135ZM414.658 186.073C415.21 186.073 415.641 185.804 415.951 185.266C416.264 184.727 416.42 183.949 416.42 182.931C416.42 182.255 416.349 181.684 416.206 181.217C416.065 180.748 415.862 180.392 415.597 180.151C415.335 179.907 415.022 179.785 414.658 179.785C414.11 179.785 413.679 180.055 413.366 180.596C413.053 181.137 412.895 181.916 412.893 182.931C412.893 183.61 412.963 184.184 413.103 184.653C413.246 185.12 413.449 185.474 413.712 185.715C413.974 185.954 414.29 186.073 414.658 186.073ZM421.761 178.743C422.124 178.746 422.482 178.812 422.835 178.942C423.187 179.072 423.506 179.284 423.789 179.578C424.076 179.873 424.304 180.27 424.473 180.771C424.646 181.27 424.733 181.89 424.736 182.633C424.736 183.346 424.664 183.981 424.521 184.538C424.378 185.092 424.172 185.56 423.905 185.942C423.639 186.324 423.317 186.614 422.938 186.813C422.559 187.012 422.132 187.111 421.657 187.111C421.172 187.111 420.741 187.016 420.365 186.825C419.988 186.634 419.682 186.37 419.446 186.033C419.21 185.694 419.063 185.304 419.005 184.864H420.218C420.297 185.214 420.459 185.498 420.703 185.715C420.949 185.93 421.268 186.037 421.657 186.037C422.254 186.037 422.719 185.777 423.053 185.258C423.388 184.735 423.556 184.006 423.559 183.07H423.495C423.357 183.298 423.185 183.494 422.978 183.659C422.774 183.823 422.544 183.951 422.29 184.041C422.035 184.131 421.763 184.176 421.474 184.176C421.005 184.176 420.578 184.061 420.194 183.83C419.809 183.599 419.503 183.282 419.275 182.879C419.047 182.476 418.933 182.016 418.933 181.499C418.933 180.985 419.05 180.518 419.283 180.099C419.519 179.68 419.848 179.349 420.269 179.105C420.694 178.858 421.191 178.738 421.761 178.743ZM421.765 179.777C421.455 179.777 421.175 179.854 420.926 180.008C420.679 180.159 420.484 180.364 420.341 180.624C420.198 180.881 420.126 181.168 420.126 181.483C420.126 181.799 420.195 182.085 420.333 182.342C420.474 182.597 420.664 182.8 420.906 182.951C421.15 183.099 421.428 183.174 421.741 183.174C421.974 183.174 422.192 183.129 422.393 183.038C422.595 182.948 422.771 182.824 422.922 182.665C423.073 182.503 423.191 182.32 423.276 182.116C423.361 181.912 423.403 181.697 423.403 181.471C423.403 181.172 423.332 180.893 423.189 180.636C423.048 180.379 422.855 180.172 422.608 180.016C422.361 179.857 422.08 179.777 421.765 179.777ZM429.008 187.111C428.462 187.111 427.974 187.017 427.545 186.829C427.118 186.641 426.78 186.379 426.531 186.045C426.284 185.709 426.151 185.319 426.133 184.876H427.382C427.398 185.117 427.479 185.327 427.624 185.504C427.773 185.679 427.966 185.815 428.205 185.91C428.444 186.005 428.709 186.053 429 186.053C429.321 186.053 429.605 185.998 429.852 185.886C430.101 185.775 430.296 185.62 430.436 185.421C430.577 185.219 430.647 184.987 430.647 184.725C430.647 184.452 430.577 184.212 430.436 184.005C430.298 183.795 430.096 183.631 429.828 183.512C429.563 183.392 429.242 183.333 428.865 183.333H428.177V182.33H428.865C429.168 182.33 429.433 182.276 429.661 182.167C429.891 182.059 430.072 181.908 430.202 181.714C430.332 181.518 430.396 181.288 430.396 181.026C430.396 180.774 430.339 180.555 430.225 180.37C430.114 180.181 429.955 180.034 429.748 179.928C429.544 179.822 429.303 179.769 429.024 179.769C428.759 179.769 428.511 179.818 428.281 179.916C428.053 180.012 427.867 180.15 427.724 180.33C427.581 180.508 427.504 180.721 427.493 180.97H426.304C426.317 180.53 426.447 180.143 426.694 179.809C426.943 179.475 427.272 179.214 427.68 179.025C428.088 178.837 428.542 178.743 429.04 178.743C429.563 178.743 430.013 178.845 430.393 179.049C430.774 179.251 431.069 179.52 431.275 179.857C431.485 180.193 431.588 180.562 431.586 180.962C431.588 181.418 431.461 181.805 431.204 182.124C430.949 182.442 430.61 182.655 430.186 182.764V182.828C430.727 182.91 431.146 183.125 431.443 183.472C431.742 183.819 431.891 184.25 431.888 184.765C431.891 185.213 431.766 185.614 431.514 185.97C431.265 186.325 430.924 186.605 430.492 186.809C430.06 187.01 429.565 187.111 429.008 187.111ZM436.08 187.111C435.582 187.111 435.133 187.016 434.736 186.825C434.341 186.631 434.025 186.366 433.789 186.029C433.553 185.693 433.427 185.308 433.411 184.876H434.604C434.634 185.226 434.789 185.514 435.07 185.739C435.351 185.964 435.688 186.077 436.08 186.077C436.393 186.077 436.67 186.005 436.911 185.862C437.155 185.716 437.346 185.516 437.484 185.262C437.625 185.007 437.695 184.717 437.695 184.391C437.695 184.059 437.623 183.764 437.48 183.504C437.337 183.244 437.139 183.04 436.887 182.891C436.638 182.743 436.352 182.667 436.028 182.665C435.782 182.665 435.534 182.707 435.285 182.792C435.035 182.877 434.834 182.988 434.68 183.126L433.554 182.959L434.012 178.854H438.49V179.908H435.034L434.775 182.187H434.823C434.982 182.034 435.193 181.905 435.456 181.802C435.721 181.698 436.004 181.646 436.307 181.646C436.803 181.646 437.244 181.764 437.631 182C438.021 182.236 438.327 182.559 438.55 182.967C438.775 183.373 438.887 183.839 438.884 184.367C438.887 184.894 438.767 185.365 438.526 185.779C438.287 186.192 437.956 186.519 437.532 186.757C437.11 186.993 436.626 187.111 436.08 187.111ZM443.172 187.111C442.626 187.111 442.138 187.017 441.709 186.829C441.282 186.641 440.944 186.379 440.695 186.045C440.448 185.709 440.315 185.319 440.297 184.876H441.546C441.562 185.117 441.643 185.327 441.788 185.504C441.937 185.679 442.13 185.815 442.369 185.91C442.608 186.005 442.873 186.053 443.165 186.053C443.485 186.053 443.769 185.998 444.016 185.886C444.265 185.775 444.46 185.62 444.6 185.421C444.741 185.219 444.811 184.987 444.811 184.725C444.811 184.452 444.741 184.212 444.6 184.005C444.462 183.795 444.26 183.631 443.992 183.512C443.727 183.392 443.406 183.333 443.029 183.333H442.341V182.33H443.029C443.332 182.33 443.597 182.276 443.825 182.167C444.055 182.059 444.236 181.908 444.366 181.714C444.496 181.518 444.561 181.288 444.561 181.026C444.561 180.774 444.504 180.555 444.39 180.37C444.278 180.181 444.119 180.034 443.912 179.928C443.708 179.822 443.467 179.769 443.188 179.769C442.923 179.769 442.675 179.818 442.445 179.916C442.217 180.012 442.031 180.15 441.888 180.33C441.745 180.508 441.668 180.721 441.657 180.97H440.468C440.481 180.53 440.611 180.143 440.858 179.809C441.107 179.475 441.436 179.214 441.844 179.025C442.252 178.837 442.706 178.743 443.204 178.743C443.727 178.743 444.177 178.845 444.557 179.049C444.938 179.251 445.233 179.52 445.44 179.857C445.649 180.193 445.752 180.562 445.75 180.962C445.752 181.418 445.625 181.805 445.368 182.124C445.113 182.442 444.774 182.655 444.35 182.764V182.828C444.891 182.91 445.31 183.125 445.607 183.472C445.906 183.819 446.055 184.25 446.052 184.765C446.055 185.213 445.93 185.614 445.678 185.97C445.429 186.325 445.088 186.605 444.656 186.809C444.224 187.01 443.729 187.111 443.172 187.111Z" fill="#212B36"/>
<rect x="387.402" y="196.4" width="40" height="4" rx="2" fill="#E8E8E8"/>
<rect x="387.402" y="206.8" width="72.8" height="4" rx="2" fill="#E8E8E8"/>
<rect x="387.402" y="217.2" width="57.6" height="4" rx="2" fill="#D9D9D9"/>
<rect x="484.202" y="169.6" width="12" height="12" rx="6" fill="#00A76F"/>
<path d="M489.128 178.164C489.064 178.164 489.004 178.154 488.948 178.134C488.892 178.114 488.84 178.08 488.792 178.032L486.728 175.968C486.64 175.88 486.598 175.766 486.602 175.626C486.606 175.486 486.652 175.372 486.74 175.284C486.828 175.196 486.94 175.152 487.076 175.152C487.212 175.152 487.324 175.196 487.412 175.284L489.128 177L493.196 172.932C493.284 172.844 493.398 172.8 493.538 172.8C493.678 172.8 493.792 172.844 493.88 172.932C493.968 173.02 494.012 173.134 494.012 173.274C494.012 173.414 493.968 173.528 493.88 173.616L489.464 178.032C489.416 178.08 489.364 178.114 489.308 178.134C489.252 178.154 489.192 178.164 489.128 178.164Z" fill="white"/>
<rect x="346" y="174" width="23.04" height="23.04" rx="11.52" fill="#00A76F"/>
<path d="M361.073 189.02H355.862C355.602 189.02 355.379 188.922 355.193 188.727C355.008 188.531 354.915 188.295 354.915 188.02V181.02C354.915 180.745 355.008 180.51 355.193 180.314C355.379 180.118 355.602 180.02 355.862 180.02H358.787C358.913 180.02 359.034 180.045 359.149 180.095C359.263 180.145 359.363 180.216 359.45 180.308L361.748 182.733C361.834 182.824 361.902 182.93 361.949 183.051C361.996 183.172 362.02 183.299 362.02 183.433V188.02C362.02 188.295 361.927 188.531 361.742 188.727C361.556 188.922 361.333 189.02 361.073 189.02ZM353.967 191.02C353.707 191.02 353.484 190.922 353.299 190.727C353.113 190.531 353.02 190.295 353.02 190.02V183.52C353.02 183.378 353.065 183.26 353.156 183.164C353.247 183.068 353.359 183.02 353.494 183.02C353.628 183.02 353.74 183.068 353.831 183.164C353.922 183.26 353.967 183.378 353.967 183.52V190.02H358.704C358.838 190.02 358.951 190.068 359.042 190.164C359.133 190.26 359.178 190.378 359.178 190.52C359.178 190.662 359.133 190.78 359.042 190.876C358.951 190.972 358.838 191.02 358.704 191.02H353.967ZM359.178 183.52H361.073L358.704 181.02V183.02C358.704 183.162 358.75 183.281 358.841 183.377C358.931 183.472 359.044 183.52 359.178 183.52Z" fill="white"/>
<rect x="337" y="255" width="161.6" height="64.8" rx="6.4" fill="white"/>
<rect x="346.602" y="261.4" width="23.04" height="23.04" rx="11.52" fill="#00A76F"/>
<path d="M358.122 270.04V268.888C358.122 268.254 357.603 267.736 356.97 267.736H353.514C352.88 267.736 352.362 268.254 352.362 268.888V276.952C352.362 277.585 352.88 278.104 353.514 278.104H362.73C363.363 278.104 363.882 277.585 363.882 276.952V271.192C363.882 270.558 363.363 270.04 362.73 270.04H358.122ZM354.666 276.952H353.514V275.8H354.666V276.952ZM354.666 274.648H353.514V273.496H354.666V274.648ZM354.666 272.344H353.514V271.192H354.666V272.344ZM354.666 270.04H353.514V268.888H354.666V270.04ZM356.97 276.952H355.818V275.8H356.97V276.952ZM356.97 274.648H355.818V273.496H356.97V274.648ZM356.97 272.344H355.818V271.192H356.97V272.344ZM356.97 270.04H355.818V268.888H356.97V270.04ZM362.154 276.952H358.122V275.8H359.274V274.648H358.122V273.496H359.274V272.344H358.122V271.192H362.154C362.47 271.192 362.73 271.451 362.73 271.768V276.376C362.73 276.693 362.47 276.952 362.154 276.952ZM361.578 272.344H360.426V273.496H361.578V272.344ZM361.578 274.648H360.426V275.8H361.578V274.648Z" fill="white"/>
<mask id="path-64-inside-4_2064_610" fill="white">
<path d="M387.402 263H452.402V277H387.402V263Z"/>
</mask>
<path d="M452.402 276.36H387.402V277.64H452.402V276.36Z" fill="#212B36" mask="url(#path-64-inside-4_2064_610)"/>
<path d="M388.296 274V265.854H391.279C391.857 265.854 392.336 265.95 392.715 266.141C393.094 266.329 393.378 266.585 393.566 266.908C393.755 267.229 393.849 267.591 393.849 267.994C393.849 268.334 393.786 268.62 393.662 268.853C393.537 269.084 393.37 269.269 393.161 269.41C392.954 269.548 392.726 269.649 392.477 269.712V269.792C392.747 269.805 393.011 269.893 393.268 270.054C393.528 270.213 393.743 270.44 393.912 270.734C394.082 271.029 394.167 271.387 394.167 271.808C394.167 272.225 394.069 272.598 393.873 272.93C393.679 273.259 393.379 273.52 392.974 273.713C392.568 273.904 392.05 274 391.419 274H388.296ZM389.525 272.946H391.299C391.888 272.946 392.31 272.832 392.564 272.604C392.819 272.376 392.946 272.091 392.946 271.749C392.946 271.491 392.881 271.255 392.751 271.041C392.621 270.826 392.436 270.655 392.194 270.528C391.956 270.4 391.672 270.337 391.343 270.337H389.525V272.946ZM389.525 269.378H391.172C391.448 269.378 391.696 269.325 391.916 269.219C392.139 269.113 392.315 268.965 392.445 268.774C392.577 268.58 392.644 268.352 392.644 268.09C392.644 267.753 392.526 267.47 392.29 267.242C392.054 267.014 391.692 266.9 391.204 266.9H389.525V269.378ZM402.7 269.927C402.7 270.797 402.541 271.544 402.223 272.17C401.905 272.793 401.469 273.273 400.914 273.61C400.363 273.944 399.736 274.111 399.033 274.111C398.328 274.111 397.698 273.944 397.144 273.61C396.592 273.273 396.158 272.792 395.839 272.166C395.521 271.541 395.362 270.794 395.362 269.927C395.362 269.057 395.521 268.311 395.839 267.688C396.158 267.062 396.592 266.582 397.144 266.248C397.698 265.911 398.328 265.743 399.033 265.743C399.736 265.743 400.363 265.911 400.914 266.248C401.469 266.582 401.905 267.062 402.223 267.688C402.541 268.311 402.7 269.057 402.7 269.927ZM401.483 269.927C401.483 269.264 401.376 268.706 401.161 268.253C400.949 267.797 400.657 267.452 400.286 267.219C399.917 266.983 399.5 266.865 399.033 266.865C398.564 266.865 398.145 266.983 397.776 267.219C397.408 267.452 397.116 267.797 396.901 268.253C396.689 268.706 396.583 269.264 396.583 269.927C396.583 270.59 396.689 271.149 396.901 271.605C397.116 272.059 397.408 272.404 397.776 272.64C398.145 272.873 398.564 272.99 399.033 272.99C399.5 272.99 399.917 272.873 400.286 272.64C400.657 272.404 400.949 272.059 401.161 271.605C401.376 271.149 401.483 270.59 401.483 269.927ZM404.232 274V265.854H405.461V272.942H409.152V274H404.232ZM414.822 274V275.01H409.647V274H414.822ZM415.595 274V273.109L418.351 270.253C418.645 269.943 418.888 269.671 419.079 269.438C419.272 269.202 419.417 268.978 419.512 268.766C419.608 268.554 419.655 268.328 419.655 268.09C419.655 267.819 419.592 267.586 419.464 267.39C419.337 267.191 419.163 267.038 418.943 266.932C418.723 266.823 418.475 266.769 418.2 266.769C417.908 266.769 417.653 266.829 417.436 266.948C417.219 267.067 417.052 267.236 416.935 267.453C416.818 267.671 416.76 267.925 416.76 268.217H415.587C415.587 267.721 415.701 267.287 415.929 266.916C416.157 266.545 416.47 266.257 416.867 266.053C417.265 265.846 417.717 265.743 418.223 265.743C418.735 265.743 419.186 265.845 419.576 266.049C419.968 266.251 420.274 266.527 420.495 266.877C420.715 267.224 420.825 267.616 420.825 268.054C420.825 268.356 420.768 268.652 420.654 268.941C420.542 269.23 420.347 269.552 420.069 269.907C419.791 270.26 419.403 270.688 418.908 271.192L417.289 272.886V272.946H420.956V274H415.595ZM422.117 272.409V271.415L425.637 265.854H426.421V267.318H425.923L423.406 271.303V271.367H428.23V272.409H422.117ZM425.979 274V272.107L425.987 271.653V265.854H427.152V274H425.979ZM433.232 269.41V270.444H429.62V269.41H433.232ZM437.637 274.135C437.008 274.132 436.471 273.967 436.026 273.638C435.58 273.309 435.24 272.83 435.004 272.202C434.768 271.574 434.65 270.817 434.65 269.931C434.65 269.048 434.768 268.294 435.004 267.668C435.242 267.042 435.584 266.565 436.03 266.236C436.478 265.907 437.013 265.743 437.637 265.743C438.26 265.743 438.794 265.909 439.239 266.24C439.685 266.569 440.026 267.046 440.262 267.672C440.5 268.295 440.62 269.048 440.62 269.931C440.62 270.819 440.502 271.578 440.266 272.206C440.03 272.832 439.689 273.31 439.243 273.642C438.798 273.971 438.262 274.135 437.637 274.135ZM437.637 273.073C438.188 273.073 438.619 272.804 438.929 272.266C439.242 271.727 439.398 270.949 439.398 269.931C439.398 269.255 439.327 268.684 439.184 268.217C439.043 267.748 438.84 267.392 438.575 267.151C438.313 266.907 438 266.785 437.637 266.785C437.088 266.785 436.657 267.055 436.344 267.596C436.031 268.137 435.873 268.916 435.871 269.931C435.871 270.61 435.941 271.184 436.081 271.653C436.225 272.12 436.427 272.474 436.69 272.715C436.952 272.954 437.268 273.073 437.637 273.073ZM444.739 265.743C445.102 265.746 445.46 265.812 445.813 265.942C446.165 266.072 446.484 266.284 446.767 266.578C447.054 266.873 447.282 267.27 447.451 267.771C447.624 268.27 447.711 268.89 447.714 269.633C447.714 270.346 447.642 270.981 447.499 271.538C447.356 272.092 447.151 272.56 446.883 272.942C446.618 273.324 446.295 273.614 445.916 273.813C445.537 274.012 445.11 274.111 444.636 274.111C444.15 274.111 443.719 274.016 443.343 273.825C442.966 273.634 442.66 273.37 442.424 273.033C442.188 272.694 442.041 272.304 441.983 271.864H443.196C443.275 272.214 443.437 272.498 443.681 272.715C443.928 272.93 444.246 273.037 444.636 273.037C445.232 273.037 445.697 272.777 446.032 272.258C446.366 271.735 446.534 271.006 446.537 270.07H446.473C446.335 270.298 446.163 270.494 445.956 270.659C445.752 270.823 445.522 270.951 445.268 271.041C445.013 271.131 444.742 271.176 444.453 271.176C443.983 271.176 443.556 271.061 443.172 270.83C442.787 270.599 442.481 270.282 442.253 269.879C442.025 269.476 441.911 269.016 441.911 268.499C441.911 267.985 442.028 267.518 442.261 267.099C442.497 266.68 442.826 266.349 443.247 266.105C443.672 265.858 444.169 265.738 444.739 265.743ZM444.743 266.777C444.433 266.777 444.153 266.854 443.904 267.008C443.657 267.159 443.462 267.364 443.319 267.624C443.176 267.881 443.104 268.168 443.104 268.483C443.104 268.799 443.173 269.085 443.311 269.342C443.452 269.597 443.643 269.8 443.884 269.951C444.128 270.099 444.406 270.174 444.719 270.174C444.952 270.174 445.17 270.129 445.371 270.038C445.573 269.948 445.749 269.824 445.9 269.665C446.051 269.503 446.169 269.32 446.254 269.116C446.339 268.912 446.382 268.697 446.382 268.471C446.382 268.172 446.31 267.893 446.167 267.636C446.026 267.379 445.833 267.172 445.586 267.016C445.34 266.857 445.058 266.777 444.743 266.777Z" fill="#212B36"/>
<rect x="387.402" y="283.4" width="40" height="4" rx="2" fill="#E8E8E8"/>
<rect x="387.402" y="293.8" width="72.8" height="4" rx="2" fill="#E8E8E8"/>
<rect x="387.402" y="304.2" width="57.6" height="4" rx="2" fill="#D9D9D9"/>
<g clip-path="url(#clip0_2064_610)">
<rect x="485" y="257" width="12" height="12" rx="6" fill="#FC8B8B"/>
<path d="M494.15 259.855C493.955 259.66 493.64 259.66 493.445 259.855L491 262.295L488.555 259.85C488.36 259.655 488.045 259.655 487.85 259.85C487.655 260.045 487.655 260.36 487.85 260.555L490.295 263L487.85 265.445C487.655 265.64 487.655 265.955 487.85 266.15C488.045 266.345 488.36 266.345 488.555 266.15L491 263.705L493.445 266.15C493.64 266.345 493.955 266.345 494.15 266.15C494.345 265.955 494.345 265.64 494.15 265.445L491.705 263L494.15 260.555C494.34 260.365 494.34 260.045 494.15 259.855Z" fill="white"/>
</g>
<rect x="347" y="261" width="23.04" height="23.04" rx="11.52" fill="#00A76F"/>
<path d="M362.073 276.02H356.862C356.602 276.02 356.379 275.922 356.193 275.727C356.008 275.531 355.915 275.295 355.915 275.02V268.02C355.915 267.745 356.008 267.51 356.193 267.314C356.379 267.118 356.602 267.02 356.862 267.02H359.787C359.913 267.02 360.034 267.045 360.149 267.095C360.263 267.145 360.363 267.216 360.45 267.308L362.748 269.733C362.834 269.824 362.902 269.93 362.949 270.051C362.996 270.172 363.02 270.299 363.02 270.433V275.02C363.02 275.295 362.927 275.531 362.742 275.727C362.556 275.922 362.333 276.02 362.073 276.02ZM354.967 278.02C354.707 278.02 354.484 277.922 354.299 277.727C354.113 277.531 354.02 277.295 354.02 277.02V270.52C354.02 270.378 354.065 270.26 354.156 270.164C354.247 270.068 354.359 270.02 354.494 270.02C354.628 270.02 354.74 270.068 354.831 270.164C354.922 270.26 354.967 270.378 354.967 270.52V277.02H359.704C359.838 277.02 359.951 277.068 360.042 277.164C360.133 277.26 360.178 277.378 360.178 277.52C360.178 277.662 360.133 277.78 360.042 277.876C359.951 277.972 359.838 278.02 359.704 278.02H354.967ZM360.178 270.52H362.073L359.704 268.02V270.02C359.704 270.162 359.75 270.281 359.841 270.377C359.931 270.472 360.044 270.52 360.178 270.52Z" fill="white"/>
<line x1="302" y1="200" x2="337" y2="200" stroke="url(#paint5_linear_2064_610)" stroke-width="4"/>
<defs>
<filter id="filter0_d_2064_610" x="193.96" y="132.6" width="137.28" height="137.28" filterUnits="userSpaceOnUse" color-interpolation-filters="sRGB">
<feFlood flood-opacity="0" result="BackgroundImageFix"/>
<feColorMatrix in="SourceAlpha" type="matrix" values="0 0 0 0 0 0 0 0 0 0 0 0 0 0 0 0 0 0 127 0" result="hardAlpha"/>
<feOffset dy="2.64"/>
<feGaussianBlur stdDeviation="14.52"/>
<feComposite in2="hardAlpha" operator="out"/>
<feColorMatrix type="matrix" values="0 0 0 0 0 0 0 0 0 0 0 0 0 0 0 0 0 0 0.12 0"/>
<feBlend mode="normal" in2="BackgroundImageFix" result="effect1_dropShadow_2064_610"/>
<feBlend mode="normal" in="SourceGraphic" in2="effect1_dropShadow_2064_610" result="shape"/>
</filter>
<linearGradient id="paint0_linear_2064_610" x1="304.797" y1="239.491" x2="338.288" y2="299.299" gradientUnits="userSpaceOnUse">
<stop stop-color="#C1FF72" stop-opacity="0.5"/>
<stop offset="1" stop-color="#86D91B" stop-opacity="0.8"/>
</linearGradient>
<linearGradient id="paint1_linear_2064_610" x1="303" y1="159" x2="333.274" y2="100.513" gradientUnits="userSpaceOnUse">
<stop stop-color="#C1FF72" stop-opacity="0.5"/>
<stop offset="1" stop-color="#86D91B" stop-opacity="0.8"/>
</linearGradient>
<linearGradient id="paint2_linear_2064_610" x1="302" y1="174" x2="322" y2="177" gradientUnits="userSpaceOnUse">
<stop stop-color="#E2FFBC" stop-opacity="0.5"/>
<stop offset="1" stop-color="#879971" stop-opacity="0.5"/>
</linearGradient>
<linearGradient id="paint3_linear_2064_610" x1="302" y1="180" x2="322" y2="180" gradientUnits="userSpaceOnUse">
<stop stop-color="#E2FFBC" stop-opacity="0.5"/>
<stop offset="1" stop-color="#879971" stop-opacity="0.5"/>
</linearGradient>
<linearGradient id="paint4_linear_2064_610" x1="302" y1="186" x2="322" y2="186" gradientUnits="userSpaceOnUse">
<stop stop-color="#E2FFBC" stop-opacity="0.5"/>
<stop offset="1" stop-color="#879971" stop-opacity="0.5"/>
</linearGradient>
<linearGradient id="paint5_linear_2064_610" x1="319.5" y1="202" x2="319.539" y2="203.482" gradientUnits="userSpaceOnUse">
<stop stop-color="#C1FF72" stop-opacity="0.5"/>
<stop offset="1" stop-color="#86D91B" stop-opacity="0.8"/>
</linearGradient>
<clipPath id="clip0_2064_610">
<rect x="485" y="257" width="12" height="12" rx="6" fill="white"/>
</clipPath>
</defs>
</svg>
