<svg width="525" height="346" viewBox="0 0 525 346" fill="none" xmlns="http://www.w3.org/2000/svg">
<rect width="525" height="346" rx="10" fill="#F5F5F5"/>
<rect x="15" y="13" width="495" height="45" rx="10" fill="white"/>
<path d="M39.3366 30.8182V41H37.9247L32.7493 33.5327H32.6548V41H31.1186V30.8182H32.5405L37.7209 38.2955H37.8153V30.8182H39.3366ZM41.4583 41V33.3636H42.9448V41H41.4583ZM42.209 32.1854C41.9505 32.1854 41.7284 32.0992 41.5428 31.9268C41.3605 31.7512 41.2694 31.5424 41.2694 31.3004C41.2694 31.0552 41.3605 30.8464 41.5428 30.674C41.7284 30.4983 41.9505 30.4105 42.209 30.4105C42.4675 30.4105 42.6879 30.4983 42.8702 30.674C43.0558 30.8464 43.1486 31.0552 43.1486 31.3004C43.1486 31.5424 43.0558 31.7512 42.8702 31.9268C42.6879 32.0992 42.4675 32.1854 42.209 32.1854ZM44.9446 41V33.3636H46.3714V34.6065H46.4659C46.625 34.1856 46.8852 33.8575 47.2464 33.6222C47.6077 33.3835 48.0402 33.2642 48.544 33.2642C49.0545 33.2642 49.482 33.3835 49.8267 33.6222C50.1747 33.8608 50.4316 34.1889 50.5973 34.6065H50.6768C50.8591 34.1989 51.1491 33.8741 51.5469 33.6321C51.9446 33.3868 52.4186 33.2642 52.9688 33.2642C53.6615 33.2642 54.2266 33.4813 54.6641 33.9155C55.1049 34.3497 55.3253 35.0043 55.3253 35.8793V41H53.8388V36.0185C53.8388 35.5014 53.6979 35.1269 53.4162 34.8949C53.1345 34.6629 52.7981 34.5469 52.407 34.5469C51.9231 34.5469 51.5469 34.696 51.2784 34.9943C51.0099 35.2893 50.8757 35.6688 50.8757 36.1328V41H49.3942V35.924C49.3942 35.5097 49.2649 35.1766 49.0064 34.9247C48.7479 34.6728 48.4115 34.5469 47.9972 34.5469C47.7154 34.5469 47.4553 34.6214 47.2166 34.7706C46.9813 34.9164 46.7907 35.1203 46.6449 35.3821C46.5024 35.6439 46.4311 35.9472 46.4311 36.2919V41H44.9446ZM57.437 41V30.8182H58.9235V34.6016H59.013C59.0991 34.4425 59.2234 34.2585 59.3858 34.0497C59.5482 33.8409 59.7736 33.6586 60.062 33.5028C60.3503 33.3438 60.7315 33.2642 61.2054 33.2642C61.8219 33.2642 62.3721 33.42 62.856 33.7315C63.3399 34.0431 63.7194 34.4922 63.9945 35.0788C64.2729 35.6655 64.4121 36.3714 64.4121 37.1967C64.4121 38.022 64.2746 38.7296 63.9995 39.3196C63.7244 39.9062 63.3465 40.3587 62.8659 40.6768C62.3854 40.9917 61.8368 41.1491 61.2203 41.1491C60.7563 41.1491 60.3768 41.0713 60.0819 40.9155C59.7902 40.7597 59.5615 40.5774 59.3958 40.3686C59.2301 40.1598 59.1025 39.9742 59.013 39.8118H58.8887V41H57.437ZM58.8936 37.1818C58.8936 37.7187 58.9715 38.1894 59.1273 38.5938C59.2831 38.9981 59.5085 39.3146 59.8034 39.5433C60.0984 39.7687 60.4597 39.8814 60.8873 39.8814C61.3314 39.8814 61.7026 39.7637 62.0009 39.5284C62.2992 39.2898 62.5246 38.9666 62.677 38.5589C62.8328 38.1513 62.9107 37.6922 62.9107 37.1818C62.9107 36.678 62.8345 36.2256 62.682 35.8246C62.5328 35.4235 62.3075 35.107 62.0059 34.875C61.7076 34.643 61.3347 34.527 60.8873 34.527C60.4564 34.527 60.0918 34.638 59.7935 34.8601C59.4985 35.0821 59.2748 35.392 59.1223 35.7898C58.9699 36.1875 58.8936 36.6515 58.8936 37.1818ZM69.3725 41.1541C68.6201 41.1541 67.9722 40.9934 67.4286 40.6719C66.8884 40.3471 66.4708 39.8913 66.1758 39.3047C65.8841 38.7147 65.7383 38.0237 65.7383 37.2315C65.7383 36.4493 65.8841 35.7599 66.1758 35.1634C66.4708 34.5668 66.8817 34.1011 67.4087 33.7663C67.939 33.4316 68.5588 33.2642 69.2681 33.2642C69.699 33.2642 70.1166 33.3355 70.521 33.478C70.9253 33.6205 71.2882 33.8442 71.6097 34.1491C71.9312 34.4541 72.1848 34.8501 72.3704 35.3374C72.556 35.8213 72.6488 36.4096 72.6488 37.1023V37.6293H66.5785V36.5156H71.1921C71.1921 36.1245 71.1126 35.7782 70.9535 35.4766C70.7944 35.1716 70.5707 34.9313 70.2823 34.7557C69.9973 34.58 69.6625 34.4922 69.2781 34.4922C68.8604 34.4922 68.4959 34.5949 68.1843 34.8004C67.8761 35.0026 67.6374 35.2678 67.4684 35.5959C67.3027 35.9207 67.2198 36.2737 67.2198 36.6548V37.5249C67.2198 38.0353 67.3093 38.4695 67.4883 38.8274C67.6706 39.1854 67.9241 39.4588 68.2489 39.6477C68.5737 39.8333 68.9532 39.9261 69.3874 39.9261C69.6692 39.9261 69.926 39.8864 70.158 39.8068C70.39 39.724 70.5906 39.6013 70.7596 39.4389C70.9286 39.2765 71.0579 39.076 71.1474 38.8374L72.5543 39.0909C72.4416 39.5052 72.2395 39.8681 71.9478 40.1797C71.6594 40.4879 71.2965 40.7282 70.859 40.9006C70.4248 41.0696 69.9293 41.1541 69.3725 41.1541ZM75.019 43.8636C74.7969 43.8636 74.5948 43.8454 74.4125 43.8089C74.2302 43.7758 74.0943 43.7393 74.0048 43.6996L74.3627 42.4815C74.6345 42.5545 74.8765 42.5859 75.0886 42.576C75.3007 42.5661 75.488 42.4865 75.6504 42.3374C75.8161 42.1882 75.9619 41.9446 76.0879 41.6065L76.2718 41.0994L73.4778 33.3636H75.0687L77.0027 39.2898H77.0822L79.0162 33.3636H80.612L77.465 42.0192C77.3192 42.4169 77.1336 42.7533 76.9082 43.0284C76.6828 43.3068 76.4144 43.5156 76.1028 43.6548C75.7913 43.794 75.43 43.8636 75.019 43.8636ZM86.6935 41H85.0629L88.7269 30.8182H90.5018L94.1658 41H92.5352L89.6566 32.6676H89.5771L86.6935 41ZM86.967 37.0128H92.2567V38.3054H86.967V37.0128ZM97.1724 30.8182V41H95.6362V30.8182H97.1724Z" fill="black"/>
<rect x="455.3" y="25.8" width="39.4" height="19.4" rx="9.7" fill="#00A76F" fill-opacity="0.07"/>
<rect x="455.3" y="25.8" width="39.4" height="19.4" rx="9.7" stroke="#00A76F" stroke-width="0.6"/>
<rect x="477" y="28" width="15" height="15" rx="7.5" fill="#00A76F"/>
<path d="M483.158 38.705C483.078 38.705 483.003 38.6924 482.933 38.6672C482.863 38.6424 482.798 38.6 482.738 38.54L480.158 35.96C480.048 35.85 479.996 35.7074 480 35.5322C480.006 35.3574 480.063 35.215 480.173 35.105C480.283 34.995 480.423 34.94 480.593 34.94C480.763 34.94 480.903 34.995 481.013 35.105L483.158 37.25L488.243 32.165C488.353 32.055 488.496 32 488.671 32C488.846 32 488.988 32.055 489.098 32.165C489.208 32.275 489.263 32.4174 489.263 32.5922C489.263 32.7674 489.208 32.91 489.098 33.02L483.578 38.54C483.518 38.6 483.453 38.6424 483.383 38.6672C483.313 38.6924 483.238 38.705 483.158 38.705Z" fill="white"/>
<g filter="url(#filter0_d_2001_1699)">
<rect x="223" y="159" width="79.2" height="79.2" rx="7.92" fill="white"/>
<mask id="mask0_2001_1699" style="mask-type:luminance" maskUnits="userSpaceOnUse" x="241" y="165" width="44" height="68">
<path d="M241 165H284.648V232.085H241V165Z" fill="white"/>
</mask>
<g mask="url(#mask0_2001_1699)">
<path d="M273.261 221.74C280.216 218.565 288.2 206.332 282.6 182.324C278.072 169.635 267.702 170.198 264.245 166.246C263.601 165.536 262.704 165.121 261.753 165.067C260.48 165 259.126 165.696 258.537 166.702C255.697 171.578 251.182 171.578 246.519 177.446C240.262 185.338 240.464 197.879 242.044 206.36C243.357 213.447 250.177 222.357 255.697 225.666C257.921 227.006 257.653 226.121 259.354 229.551C259.998 230.851 261.739 232.66 263.401 231.842C264.285 231.413 264.566 230.529 264.741 229.712C265.062 228.319 266.562 224.795 273.261 221.74Z" fill="#C1FF72"/>
</g>
<path d="M275.051 212.566H270.193V195.252C270.193 192.333 269.67 190.328 268.622 189.237C267.575 188.146 266.121 187.6 264.262 187.6C262.83 187.6 261.474 187.95 260.192 188.647C258.913 189.346 258.005 190.33 257.468 191.6C256.932 192.87 256.663 194.669 256.663 196.994V212.566H251.832V184.084H256.179V188.11H256.289C257.31 186.553 258.566 185.386 260.06 184.608C261.553 183.828 263.285 183.438 265.256 183.438C266.758 183.438 268.242 183.706 269.709 184.243C271.179 184.78 272.328 185.587 273.159 186.663C273.992 187.736 274.515 188.883 274.73 190.099C274.943 191.314 275.051 192.959 275.051 195.036V212.566Z" fill="white"/>
</g>
<path d="M261.606 239L261.804 282.397C261.829 287.889 266.279 292.333 271.771 292.351L347.39 292.598" stroke="url(#paint0_linear_2001_1699)" stroke-width="4"/>
<path d="M258 159L258.71 118.895C258.807 113.414 263.299 109.032 268.781 109.072L348 109.65" stroke="url(#paint1_linear_2001_1699)" stroke-width="3"/>
<path d="M223 207H210C208.895 207 208 206.105 208 205V202C208 200.895 208.895 200 210 200H223V207Z" fill="#81D21B"/>
<rect opacity="0.5" x="208" y="205.5" width="32" height="4" transform="rotate(-180 208 205.5)" fill="#D9D9D9"/>
<path d="M223 215H210C208.895 215 208 214.105 208 213V210C208 208.895 208.895 208 210 208H223V215Z" fill="#FFE500"/>
<rect x="208" y="213.5" width="32" height="4" transform="rotate(-180 208 213.5)" fill="#E0E0E0"/>
<rect x="302" y="177" width="20" height="4" fill="url(#paint2_linear_2001_1699)"/>
<rect x="234" y="159" width="10" height="4" transform="rotate(-90 234 159)" fill="#E2FFBC"/>
<rect x="241" y="159" width="10" height="4" transform="rotate(-90 241 159)" fill="#E2FFBC"/>
<rect x="302" y="185" width="20" height="4" fill="url(#paint3_linear_2001_1699)"/>
<rect x="302" y="193" width="20" height="4" fill="url(#paint4_linear_2001_1699)"/>
<rect x="21" y="170" width="161.6" height="64.8" rx="6.4" fill="white"/>
<rect x="30.6016" y="176.4" width="23.04" height="23.04" rx="11.52" fill="#00A76F"/>
<path d="M42.1216 185.04V183.888C42.1216 183.254 41.6032 182.736 40.9696 182.736H37.5136C36.88 182.736 36.3616 183.254 36.3616 183.888V191.952C36.3616 192.585 36.88 193.104 37.5136 193.104H46.7296C47.3632 193.104 47.8816 192.585 47.8816 191.952V186.192C47.8816 185.558 47.3632 185.04 46.7296 185.04H42.1216ZM38.6656 191.952H37.5136V190.8H38.6656V191.952ZM38.6656 189.648H37.5136V188.496H38.6656V189.648ZM38.6656 187.344H37.5136V186.192H38.6656V187.344ZM38.6656 185.04H37.5136V183.888H38.6656V185.04ZM40.9696 191.952H39.8176V190.8H40.9696V191.952ZM40.9696 189.648H39.8176V188.496H40.9696V189.648ZM40.9696 187.344H39.8176V186.192H40.9696V187.344ZM40.9696 185.04H39.8176V183.888H40.9696V185.04ZM46.1536 191.952H42.1216V190.8H43.2736V189.648H42.1216V188.496H43.2736V187.344H42.1216V186.192H46.1536C46.4704 186.192 46.7296 186.451 46.7296 186.768V191.376C46.7296 191.693 46.4704 191.952 46.1536 191.952ZM45.5776 187.344H44.4256V188.496H45.5776V187.344ZM45.5776 189.648H44.4256V190.8H45.5776V189.648Z" fill="white"/>
<mask id="path-25-inside-1_2001_1699" fill="white">
<path d="M71.4016 178H144.202V192H71.4016V178Z"/>
</mask>
<path d="M144.202 191.36H71.4016V192.64H144.202V191.36Z" fill="#212B36" mask="url(#path-25-inside-1_2001_1699)"/>
<path d="M76.3335 189H73.6965V180.854H76.417C77.2151 180.854 77.9005 181.017 78.4732 181.344C79.046 181.667 79.4848 182.132 79.7897 182.74C80.0973 183.344 80.2511 184.069 80.2511 184.915C80.2511 185.764 80.096 186.493 79.7857 187.103C79.4782 187.713 79.0327 188.182 78.4494 188.511C77.866 188.837 77.1607 189 76.3335 189ZM74.9255 187.926H76.2658C76.8863 187.926 77.402 187.809 77.813 187.576C78.224 187.34 78.5316 186.999 78.7357 186.554C78.9399 186.106 79.042 185.559 79.042 184.915C79.042 184.276 78.9399 183.734 78.7357 183.288C78.5342 182.843 78.2333 182.505 77.8329 182.274C77.4325 182.044 76.9353 181.928 76.3414 181.928H74.9255V187.926ZM81.6839 189V182.891H82.8731V189H81.6839ZM82.2844 181.948C82.0776 181.948 81.9 181.879 81.7515 181.741C81.6057 181.601 81.5327 181.434 81.5327 181.24C81.5327 181.044 81.6057 180.877 81.7515 180.739C81.9 180.598 82.0776 180.528 82.2844 180.528C82.4913 180.528 82.6676 180.598 82.8134 180.739C82.9619 180.877 83.0362 181.044 83.0362 181.24C83.0362 181.434 82.9619 181.601 82.8134 181.741C82.6676 181.879 82.4913 181.948 82.2844 181.948ZM89.0508 184.382L87.9729 184.573C87.9279 184.435 87.8563 184.304 87.7582 184.179C87.6627 184.055 87.5328 183.953 87.3684 183.873C87.204 183.794 86.9985 183.754 86.7519 183.754C86.4152 183.754 86.1341 183.829 85.9087 183.98C85.6834 184.129 85.5707 184.321 85.5707 184.557C85.5707 184.761 85.6462 184.926 85.7974 185.05C85.9485 185.175 86.1925 185.277 86.5292 185.357L87.4996 185.579C88.0618 185.709 88.4807 185.909 88.7565 186.18C89.0322 186.45 89.1701 186.802 89.1701 187.234C89.1701 187.6 89.064 187.926 88.8519 188.212C88.6425 188.496 88.3495 188.719 87.9729 188.88C87.5991 189.042 87.1656 189.123 86.6724 189.123C85.9883 189.123 85.4301 188.977 84.9979 188.686C84.5657 188.391 84.3006 187.974 84.2025 187.433L85.3519 187.258C85.4235 187.557 85.5707 187.784 85.7934 187.938C86.0161 188.089 86.3065 188.165 86.6644 188.165C87.0542 188.165 87.3657 188.084 87.5991 187.922C87.8324 187.758 87.9491 187.557 87.9491 187.321C87.9491 187.13 87.8775 186.97 87.7343 186.84C87.5938 186.71 87.3777 186.612 87.086 186.546L86.0519 186.319C85.4818 186.189 85.0603 185.982 84.7871 185.699C84.5167 185.415 84.3815 185.056 84.3815 184.621C84.3815 184.26 84.4822 183.945 84.6837 183.674C84.8853 183.404 85.1637 183.193 85.519 183.042C85.8743 182.888 86.2813 182.811 86.74 182.811C87.4002 182.811 87.9199 182.954 88.2991 183.241C88.6782 183.524 88.9288 183.905 89.0508 184.382ZM90.4776 191.291V182.891H91.639V183.881H91.7384C91.8074 183.754 91.9068 183.607 92.0367 183.44C92.1666 183.273 92.3469 183.127 92.5776 183.002C92.8083 182.875 93.1132 182.811 93.4924 182.811C93.9856 182.811 94.4257 182.936 94.8129 183.185C95.2 183.434 95.5036 183.794 95.7237 184.263C95.9464 184.732 96.0577 185.297 96.0577 185.957C96.0577 186.617 95.9477 187.184 95.7276 187.655C95.5076 188.125 95.2053 188.487 94.8208 188.741C94.4363 188.993 93.9975 189.119 93.5043 189.119C93.1331 189.119 92.8295 189.057 92.5935 188.932C92.3602 188.808 92.1773 188.662 92.0447 188.495C91.9121 188.328 91.81 188.179 91.7384 188.049H91.6668V191.291H90.4776ZM91.643 185.945C91.643 186.375 91.7053 186.751 91.8299 187.075C91.9545 187.398 92.1348 187.652 92.3708 187.834C92.6068 188.015 92.8958 188.105 93.2379 188.105C93.5932 188.105 93.8901 188.011 94.1288 187.823C94.3674 187.632 94.5477 187.373 94.6697 187.047C94.7943 186.721 94.8566 186.354 94.8566 185.945C94.8566 185.542 94.7956 185.18 94.6737 184.859C94.5543 184.539 94.374 184.285 94.1327 184.1C93.8941 183.914 93.5958 183.821 93.2379 183.821C92.8932 183.821 92.6015 183.91 92.3629 184.088C92.1269 184.266 91.9479 184.513 91.8259 184.832C91.704 185.15 91.643 185.521 91.643 185.945ZM101.26 186.466V182.891H102.453V189H101.284V187.942H101.22C101.08 188.268 100.854 188.54 100.544 188.757C100.237 188.972 99.8534 189.079 99.3947 189.079C99.0023 189.079 98.6549 188.993 98.3526 188.821C98.053 188.646 97.817 188.387 97.6447 188.045C97.475 187.703 97.3901 187.28 97.3901 186.777V182.891H98.5793V186.633C98.5793 187.05 98.6947 187.381 98.9254 187.628C99.156 187.874 99.4557 187.998 99.8242 187.998C100.047 187.998 100.268 187.942 100.488 187.83C100.711 187.719 100.895 187.551 101.041 187.325C101.19 187.1 101.263 186.814 101.26 186.466ZM106.903 182.891V183.845H103.566V182.891H106.903ZM104.461 181.427H105.65V187.206C105.65 187.437 105.684 187.61 105.753 187.727C105.822 187.841 105.911 187.919 106.02 187.962C106.131 188.002 106.252 188.021 106.382 188.021C106.477 188.021 106.561 188.015 106.632 188.002C106.704 187.988 106.76 187.978 106.799 187.97L107.014 188.952C106.945 188.979 106.847 189.005 106.72 189.032C106.593 189.061 106.433 189.077 106.243 189.079C105.93 189.085 105.638 189.029 105.368 188.912C105.097 188.796 104.878 188.615 104.711 188.371C104.544 188.127 104.461 187.821 104.461 187.453V181.427ZM110.786 189.123C110.184 189.123 109.665 188.995 109.23 188.737C108.798 188.477 108.464 188.113 108.228 187.644C107.995 187.172 107.878 186.619 107.878 185.985C107.878 185.359 107.995 184.808 108.228 184.33C108.464 183.853 108.793 183.481 109.215 183.213C109.639 182.945 110.135 182.811 110.702 182.811C111.047 182.811 111.381 182.868 111.704 182.982C112.028 183.096 112.318 183.275 112.575 183.519C112.833 183.763 113.035 184.08 113.184 184.47C113.332 184.857 113.407 185.327 113.407 185.882V186.303H108.55V185.412H112.241C112.241 185.099 112.178 184.822 112.05 184.581C111.923 184.337 111.744 184.145 111.513 184.004C111.285 183.864 111.018 183.794 110.71 183.794C110.376 183.794 110.084 183.876 109.835 184.04C109.588 184.202 109.398 184.414 109.262 184.677C109.13 184.936 109.063 185.219 109.063 185.524V186.22C109.063 186.628 109.135 186.975 109.278 187.262C109.424 187.548 109.627 187.767 109.887 187.918C110.147 188.066 110.45 188.141 110.798 188.141C111.023 188.141 111.228 188.109 111.414 188.045C111.6 187.979 111.76 187.881 111.895 187.751C112.03 187.621 112.134 187.461 112.205 187.27L113.331 187.473C113.241 187.804 113.079 188.094 112.846 188.344C112.615 188.59 112.325 188.782 111.975 188.92C111.627 189.055 111.231 189.123 110.786 189.123ZM119.304 184.382L118.226 184.573C118.181 184.435 118.109 184.304 118.011 184.179C117.916 184.055 117.786 183.953 117.622 183.873C117.457 183.794 117.252 183.754 117.005 183.754C116.668 183.754 116.387 183.829 116.162 183.98C115.936 184.129 115.824 184.321 115.824 184.557C115.824 184.761 115.899 184.926 116.05 185.05C116.202 185.175 116.446 185.277 116.782 185.357L117.753 185.579C118.315 185.709 118.734 185.909 119.01 186.18C119.285 186.45 119.423 186.802 119.423 187.234C119.423 187.6 119.317 187.926 119.105 188.212C118.896 188.496 118.603 188.719 118.226 188.88C117.852 189.042 117.419 189.123 116.925 189.123C116.241 189.123 115.683 188.977 115.251 188.686C114.819 188.391 114.554 187.974 114.456 187.433L115.605 187.258C115.677 187.557 115.824 187.784 116.047 187.938C116.269 188.089 116.56 188.165 116.918 188.165C117.307 188.165 117.619 188.084 117.852 187.922C118.086 187.758 118.202 187.557 118.202 187.321C118.202 187.13 118.131 186.97 117.987 186.84C117.847 186.71 117.631 186.612 117.339 186.546L116.305 186.319C115.735 186.189 115.313 185.982 115.04 185.699C114.77 185.415 114.635 185.056 114.635 184.621C114.635 184.26 114.735 183.945 114.937 183.674C115.138 183.404 115.417 183.193 115.772 183.042C116.127 182.888 116.534 182.811 116.993 182.811C117.653 182.811 118.173 182.954 118.552 183.241C118.931 183.524 119.182 183.905 119.304 184.382ZM123.79 189V180.854H125.019V187.942H128.71V189H123.79ZM130.017 189V182.891H131.206V189H130.017ZM130.617 181.948C130.41 181.948 130.233 181.879 130.084 181.741C129.938 181.601 129.866 181.434 129.866 181.24C129.866 181.044 129.938 180.877 130.084 180.739C130.233 180.598 130.41 180.528 130.617 180.528C130.824 180.528 131 180.598 131.146 180.739C131.295 180.877 131.369 181.044 131.369 181.24C131.369 181.434 131.295 181.601 131.146 181.741C131 181.879 130.824 181.948 130.617 181.948ZM137.384 184.382L136.306 184.573C136.261 184.435 136.189 184.304 136.091 184.179C135.996 184.055 135.866 183.953 135.701 183.873C135.537 183.794 135.331 183.754 135.085 183.754C134.748 183.754 134.467 183.829 134.242 183.98C134.016 184.129 133.903 184.321 133.903 184.557C133.903 184.761 133.979 184.926 134.13 185.05C134.281 185.175 134.525 185.277 134.862 185.357L135.832 185.579C136.395 185.709 136.814 185.909 137.089 186.18C137.365 186.45 137.503 186.802 137.503 187.234C137.503 187.6 137.397 187.926 137.185 188.212C136.975 188.496 136.682 188.719 136.306 188.88C135.932 189.042 135.498 189.123 135.005 189.123C134.321 189.123 133.763 188.977 133.331 188.686C132.899 188.391 132.633 187.974 132.535 187.433L133.685 187.258C133.756 187.557 133.903 187.784 134.126 187.938C134.349 188.089 134.639 188.165 134.997 188.165C135.387 188.165 135.699 188.084 135.932 187.922C136.165 187.758 136.282 187.557 136.282 187.321C136.282 187.13 136.21 186.97 136.067 186.84C135.927 186.71 135.71 186.612 135.419 186.546L134.385 186.319C133.815 186.189 133.393 185.982 133.12 185.699C132.85 185.415 132.714 185.056 132.714 184.621C132.714 184.26 132.815 183.945 133.017 183.674C133.218 183.404 133.496 183.193 133.852 183.042C134.207 182.888 134.614 182.811 135.073 182.811C135.733 182.811 136.253 182.954 136.632 183.241C137.011 183.524 137.262 183.905 137.384 184.382ZM141.662 182.891V183.845H138.325V182.891H141.662ZM139.22 181.427H140.409V187.206C140.409 187.437 140.444 187.61 140.513 187.727C140.582 187.841 140.67 187.919 140.779 187.962C140.891 188.002 141.011 188.021 141.141 188.021C141.237 188.021 141.32 188.015 141.392 188.002C141.463 187.988 141.519 187.978 141.559 187.97L141.774 188.952C141.705 188.979 141.606 189.005 141.479 189.032C141.352 189.061 141.193 189.077 141.002 189.079C140.689 189.085 140.397 189.029 140.127 188.912C139.856 188.796 139.638 188.615 139.471 188.371C139.304 188.127 139.22 187.821 139.22 187.453V181.427Z" fill="#212B36"/>
<rect x="71.4016" y="198.4" width="40" height="4" rx="2" fill="#E8E8E8"/>
<rect x="71.4016" y="208.8" width="72.8" height="4" rx="2" fill="#E8E8E8"/>
<rect x="71.4016" y="219.2" width="57.6" height="4" rx="2" fill="#D9D9D9"/>
<rect x="168.202" y="171.6" width="12" height="12" rx="6" fill="#00A76F"/>
<path d="M173.128 180.164C173.064 180.164 173.004 180.154 172.948 180.134C172.892 180.114 172.84 180.08 172.792 180.032L170.728 177.968C170.64 177.88 170.598 177.766 170.602 177.626C170.606 177.486 170.652 177.372 170.74 177.284C170.828 177.196 170.94 177.152 171.076 177.152C171.212 177.152 171.324 177.196 171.412 177.284L173.128 179L177.196 174.932C177.284 174.844 177.398 174.8 177.538 174.8C177.678 174.8 177.792 174.844 177.88 174.932C177.968 175.02 178.012 175.134 178.012 175.274C178.012 175.414 177.968 175.528 177.88 175.616L173.464 180.032C173.416 180.08 173.364 180.114 173.308 180.134C173.252 180.154 173.192 180.164 173.128 180.164Z" fill="white"/>
<rect x="337" y="80" width="161.6" height="64.8" rx="6.4" fill="white"/>
<rect x="346.602" y="86.3998" width="23.04" height="23.04" rx="11.52" fill="#00A76F"/>
<path d="M358.122 95.0398V93.8878C358.122 93.2542 357.603 92.7358 356.97 92.7358H353.514C352.88 92.7358 352.362 93.2542 352.362 93.8878V101.952C352.362 102.585 352.88 103.104 353.514 103.104H362.73C363.363 103.104 363.882 102.585 363.882 101.952V96.1918C363.882 95.5582 363.363 95.0398 362.73 95.0398H358.122ZM354.666 101.952H353.514V100.8H354.666V101.952ZM354.666 99.6478H353.514V98.4958H354.666V99.6478ZM354.666 97.3438H353.514V96.1918H354.666V97.3438ZM354.666 95.0398H353.514V93.8878H354.666V95.0398ZM356.97 101.952H355.818V100.8H356.97V101.952ZM356.97 99.6478H355.818V98.4958H356.97V99.6478ZM356.97 97.3438H355.818V96.1918H356.97V97.3438ZM356.97 95.0398H355.818V93.8878H356.97V95.0398ZM362.154 101.952H358.122V100.8H359.274V99.6478H358.122V98.4958H359.274V97.3438H358.122V96.1918H362.154C362.47 96.1918 362.73 96.451 362.73 96.7678V101.376C362.73 101.693 362.47 101.952 362.154 101.952ZM361.578 97.3438H360.426V98.4958H361.578V97.3438ZM361.578 99.6478H360.426V100.8H361.578V99.6478Z" fill="white"/>
<mask id="path-36-inside-2_2001_1699" fill="white">
<path d="M387.402 87.9998H443.402V102H387.402V87.9998Z"/>
</mask>
<path d="M443.402 101.36H387.402V102.64H443.402V101.36Z" fill="#212B36" mask="url(#path-36-inside-2_2001_1699)"/>
<path d="M388.296 98.9998V90.8544H391.2C391.834 90.8544 392.359 90.9697 392.775 91.2004C393.191 91.4311 393.503 91.7466 393.71 92.147C393.916 92.5447 394.02 92.9928 394.02 93.4913C394.02 93.9924 393.915 94.4432 393.706 94.8436C393.499 95.2413 393.186 95.5568 392.767 95.7902C392.351 96.0208 391.827 96.1362 391.196 96.1362H389.199V95.0941H391.085C391.485 95.0941 391.81 95.0252 392.059 94.8873C392.308 94.7468 392.491 94.5559 392.608 94.3146C392.725 94.0733 392.783 93.7989 392.783 93.4913C392.783 93.1837 392.725 92.9106 392.608 92.672C392.491 92.4333 392.307 92.2464 392.055 92.1112C391.806 91.976 391.477 91.9083 391.069 91.9083H389.525V98.9998H388.296ZM402.226 93.5032H400.985C400.937 93.2381 400.848 93.0047 400.719 92.8032C400.589 92.6017 400.429 92.4307 400.241 92.2902C400.053 92.1496 399.842 92.0436 399.609 91.972C399.378 91.9004 399.133 91.8646 398.873 91.8646C398.404 91.8646 397.983 91.9826 397.612 92.2186C397.244 92.4546 396.952 92.8006 396.737 93.2566C396.525 93.7127 396.419 94.2695 396.419 94.9271C396.419 95.59 396.525 96.1494 396.737 96.6055C396.952 97.0616 397.245 97.4063 397.616 97.6396C397.987 97.8729 398.405 97.9896 398.869 97.9896C399.126 97.9896 399.37 97.9551 399.601 97.8862C399.834 97.8146 400.045 97.7099 400.233 97.572C400.422 97.4341 400.581 97.2657 400.711 97.0669C400.843 96.8653 400.935 96.6347 400.985 96.3748L402.226 96.3788C402.16 96.7792 402.031 97.1477 401.84 97.4845C401.652 97.8186 401.409 98.1076 401.112 98.3515C400.818 98.5928 400.481 98.7797 400.102 98.9123C399.723 99.0449 399.309 99.1112 398.861 99.1112C398.156 99.1112 397.527 98.9441 396.976 98.61C396.424 98.2733 395.99 97.7921 395.671 97.1663C395.356 96.5405 395.198 95.7941 395.198 94.9271C395.198 94.0574 395.357 93.311 395.675 92.6879C395.994 92.0621 396.428 91.5822 396.98 91.2481C397.531 90.9114 398.158 90.743 398.861 90.743C399.293 90.743 399.696 90.8053 400.07 90.9299C400.447 91.0519 400.785 91.2322 401.084 91.4708C401.384 91.7068 401.632 91.9958 401.828 92.3379C402.024 92.6773 402.157 93.0657 402.226 93.5032ZM403.585 98.9998V98.1089L406.341 95.2532C406.636 94.943 406.878 94.6712 407.069 94.4379C407.263 94.2019 407.407 93.9778 407.503 93.7657C407.598 93.5536 407.646 93.3282 407.646 93.0896C407.646 92.8191 407.582 92.5858 407.455 92.3896C407.328 92.1907 407.154 92.0383 406.934 91.9322C406.714 91.8235 406.466 91.7691 406.19 91.7691C405.899 91.7691 405.644 91.8288 405.427 91.9481C405.209 92.0674 405.042 92.2358 404.925 92.4532C404.809 92.6707 404.75 92.9252 404.75 93.2169H403.577C403.577 92.721 403.691 92.2875 403.919 91.9163C404.147 91.5451 404.46 91.2574 404.858 91.0532C405.256 90.8464 405.708 90.743 406.214 90.743C406.726 90.743 407.177 90.8451 407.566 91.0492C407.959 91.2508 408.265 91.5265 408.485 91.8765C408.705 92.2239 408.815 92.6163 408.815 93.0538C408.815 93.3561 408.758 93.6517 408.644 93.9407C408.533 94.2297 408.338 94.5519 408.06 94.9072C407.781 95.2599 407.394 95.6881 406.898 96.1919L405.279 97.8862V97.9458H408.946V98.9998H403.585ZM413.29 99.1112C412.743 99.1112 412.256 99.0171 411.826 98.8288C411.399 98.6405 411.061 98.3794 410.812 98.0453C410.565 97.7085 410.433 97.3188 410.414 96.876H411.663C411.679 97.1172 411.76 97.3267 411.906 97.5044C412.054 97.6794 412.248 97.8146 412.486 97.91C412.725 98.0055 412.99 98.0532 413.282 98.0532C413.603 98.0532 413.886 97.9975 414.133 97.8862C414.382 97.7748 414.577 97.6197 414.718 97.4208C414.858 97.2193 414.928 96.9873 414.928 96.7248C414.928 96.4517 414.858 96.2117 414.718 96.0049C414.58 95.7955 414.377 95.6311 414.109 95.5117C413.844 95.3924 413.523 95.3328 413.146 95.3328H412.458V94.3305H413.146C413.449 94.3305 413.714 94.2761 413.942 94.1674C414.173 94.0587 414.353 93.9076 414.483 93.714C414.613 93.5178 414.678 93.2885 414.678 93.026C414.678 92.7741 414.621 92.5553 414.507 92.3697C414.395 92.1814 414.236 92.0343 414.029 91.9282C413.825 91.8222 413.584 91.7691 413.306 91.7691C413.04 91.7691 412.793 91.8182 412.562 91.9163C412.334 92.0117 412.148 92.1496 412.005 92.3299C411.862 92.5076 411.785 92.721 411.774 92.9703H410.585C410.598 92.5301 410.728 92.143 410.975 91.8089C411.224 91.4748 411.553 91.2136 411.961 91.0254C412.37 90.8371 412.823 90.743 413.321 90.743C413.844 90.743 414.295 90.8451 414.674 91.0492C415.056 91.2508 415.35 91.5199 415.557 91.8566C415.766 92.1934 415.87 92.5619 415.867 92.9623C415.87 93.4184 415.742 93.8055 415.485 94.1237C415.231 94.4419 414.891 94.6553 414.467 94.764V94.8277C415.008 94.9099 415.427 95.1246 415.724 95.472C416.023 95.8193 416.172 96.2502 416.169 96.7646C416.172 97.2127 416.047 97.6144 415.795 97.9697C415.546 98.325 415.205 98.6047 414.773 98.8089C414.341 99.0104 413.846 99.1112 413.29 99.1112ZM417.502 97.4089V96.4146L421.021 90.8544H421.805V92.318H421.308L418.79 96.3032V96.3669H423.615V97.4089H417.502ZM421.364 98.9998V97.1066L421.371 96.6532V90.8544H422.537V98.9998H421.364ZM425.001 98.9998V98.1089L427.757 95.2532C428.051 94.943 428.294 94.6712 428.485 94.4379C428.678 94.2019 428.823 93.9778 428.918 93.7657C429.014 93.5536 429.062 93.3282 429.062 93.0896C429.062 92.8191 428.998 92.5858 428.871 92.3896C428.743 92.1907 428.57 92.0383 428.35 91.9322C428.13 91.8235 427.882 91.7691 427.606 91.7691C427.314 91.7691 427.06 91.8288 426.842 91.9481C426.625 92.0674 426.458 92.2358 426.341 92.4532C426.224 92.6707 426.166 92.9252 426.166 93.2169H424.993C424.993 92.721 425.107 92.2875 425.335 91.9163C425.563 91.5451 425.876 91.2574 426.273 91.0532C426.671 90.8464 427.123 90.743 427.63 90.743C428.141 90.743 428.592 90.8451 428.982 91.0492C429.374 91.2508 429.681 91.5265 429.901 91.8765C430.121 92.2239 430.231 92.6163 430.231 93.0538C430.231 93.3561 430.174 93.6517 430.06 93.9407C429.948 94.2297 429.754 94.5519 429.475 94.9072C429.197 95.2599 428.81 95.6881 428.314 96.1919L426.695 97.8862V97.9458H430.362V98.9998H425.001ZM434.96 90.8544V98.9998H433.727V92.0873H433.679L431.73 93.36V92.1828L433.763 90.8544H434.96ZM439.852 99.1112C439.353 99.1112 438.905 99.0157 438.508 98.8248C438.113 98.6313 437.797 98.3661 437.561 98.0294C437.325 97.6926 437.199 97.3082 437.183 96.876H438.376C438.405 97.226 438.561 97.5136 438.842 97.739C439.123 97.9644 439.459 98.0771 439.852 98.0771C440.165 98.0771 440.442 98.0055 440.683 97.8623C440.927 97.7165 441.118 97.5163 441.256 97.2617C441.396 97.0072 441.467 96.7169 441.467 96.3907C441.467 96.0593 441.395 95.7636 441.252 95.5038C441.109 95.2439 440.911 95.0398 440.659 94.8913C440.41 94.7428 440.124 94.6672 439.8 94.6646C439.554 94.6646 439.306 94.707 439.056 94.7919C438.807 94.8767 438.606 94.9881 438.452 95.126L437.326 94.9589L437.784 90.8544H442.262V91.9083H438.806L438.547 94.1873H438.595C438.754 94.0335 438.965 93.9049 439.227 93.8015C439.493 93.6981 439.776 93.6464 440.079 93.6464C440.574 93.6464 441.016 93.7644 441.403 94.0004C441.793 94.2364 442.099 94.5585 442.322 94.9669C442.547 95.3725 442.659 95.8392 442.656 96.3669C442.659 96.8945 442.539 97.3652 442.298 97.7788C442.059 98.1924 441.728 98.5186 441.304 98.7572C440.882 98.9932 440.398 99.1112 439.852 99.1112Z" fill="#212B36"/>
<rect x="387.402" y="108.4" width="40" height="4" rx="2" fill="#E8E8E8"/>
<rect x="387.402" y="118.8" width="72.8" height="4" rx="2" fill="#E8E8E8"/>
<rect x="387.402" y="129.2" width="57.6" height="4" rx="2" fill="#D9D9D9"/>
<rect x="484.202" y="81.5998" width="12" height="12" rx="6" fill="#00A76F"/>
<path d="M489.128 90.1638C489.064 90.1638 489.004 90.1537 488.948 90.1336C488.892 90.1137 488.84 90.0798 488.792 90.0318L486.728 87.9678C486.64 87.8798 486.598 87.7657 486.602 87.6256C486.606 87.4857 486.652 87.3718 486.74 87.2838C486.828 87.1958 486.94 87.1518 487.076 87.1518C487.212 87.1518 487.324 87.1958 487.412 87.2838L489.128 88.9998L493.196 84.9318C493.284 84.8438 493.398 84.7998 493.538 84.7998C493.678 84.7998 493.792 84.8438 493.88 84.9318C493.968 85.0198 494.012 85.1337 494.012 85.2736C494.012 85.4137 493.968 85.5278 493.88 85.6158L489.464 90.0318C489.416 90.0798 489.364 90.1137 489.308 90.1336C489.252 90.1537 489.192 90.1638 489.128 90.1638Z" fill="white"/>
<rect x="337" y="255" width="161.6" height="64.8" rx="6.4" fill="white"/>
<rect x="346.602" y="261.4" width="23.04" height="23.04" rx="11.52" fill="#00A76F"/>
<path d="M358.122 270.04V268.888C358.122 268.254 357.603 267.736 356.97 267.736H353.514C352.88 267.736 352.362 268.254 352.362 268.888V276.952C352.362 277.585 352.88 278.104 353.514 278.104H362.73C363.363 278.104 363.882 277.585 363.882 276.952V271.192C363.882 270.558 363.363 270.04 362.73 270.04H358.122ZM354.666 276.952H353.514V275.8H354.666V276.952ZM354.666 274.648H353.514V273.496H354.666V274.648ZM354.666 272.344H353.514V271.192H354.666V272.344ZM354.666 270.04H353.514V268.888H354.666V270.04ZM356.97 276.952H355.818V275.8H356.97V276.952ZM356.97 274.648H355.818V273.496H356.97V274.648ZM356.97 272.344H355.818V271.192H356.97V272.344ZM356.97 270.04H355.818V268.888H356.97V270.04ZM362.154 276.952H358.122V275.8H359.274V274.648H358.122V273.496H359.274V272.344H358.122V271.192H362.154C362.47 271.192 362.73 271.451 362.73 271.768V276.376C362.73 276.693 362.47 276.952 362.154 276.952ZM361.578 272.344H360.426V273.496H361.578V272.344ZM361.578 274.648H360.426V275.8H361.578V274.648Z" fill="white"/>
<mask id="path-47-inside-3_2001_1699" fill="white">
<path d="M387.402 263H452.402V277H387.402V263Z"/>
</mask>
<path d="M452.402 276.36H387.402V277.64H452.402V276.36Z" fill="#212B36" mask="url(#path-47-inside-3_2001_1699)"/>
<path d="M392.739 267.994C392.697 267.618 392.522 267.326 392.214 267.119C391.907 266.91 391.519 266.805 391.053 266.805C390.719 266.805 390.43 266.858 390.186 266.964C389.942 267.067 389.752 267.211 389.617 267.394C389.484 267.574 389.418 267.779 389.418 268.01C389.418 268.204 389.463 268.371 389.553 268.511C389.646 268.652 389.767 268.77 389.915 268.865C390.066 268.958 390.228 269.036 390.4 269.1C390.573 269.161 390.739 269.211 390.898 269.251L391.693 269.458C391.953 269.521 392.219 269.608 392.493 269.716C392.766 269.825 393.019 269.968 393.252 270.146C393.486 270.323 393.674 270.544 393.817 270.806C393.963 271.069 394.036 271.383 394.036 271.749C394.036 272.21 393.916 272.62 393.678 272.978C393.442 273.336 393.098 273.618 392.648 273.825C392.2 274.032 391.657 274.135 391.021 274.135C390.411 274.135 389.883 274.038 389.438 273.845C388.993 273.651 388.644 273.377 388.392 273.021C388.14 272.663 388.001 272.239 387.974 271.749H389.207C389.231 272.043 389.327 272.288 389.494 272.484C389.663 272.678 389.879 272.823 390.142 272.918C390.407 273.011 390.697 273.057 391.013 273.057C391.36 273.057 391.669 273.003 391.94 272.894C392.213 272.783 392.428 272.629 392.584 272.433C392.74 272.234 392.819 272.002 392.819 271.737C392.819 271.495 392.75 271.298 392.612 271.144C392.477 270.99 392.292 270.863 392.059 270.762C391.828 270.662 391.567 270.573 391.275 270.496L390.313 270.233C389.661 270.056 389.144 269.794 388.762 269.45C388.383 269.105 388.193 268.649 388.193 268.082C388.193 267.612 388.32 267.203 388.575 266.853C388.829 266.503 389.174 266.231 389.609 266.037C390.044 265.841 390.534 265.743 391.081 265.743C391.632 265.743 392.119 265.84 392.54 266.033C392.964 266.227 393.299 266.493 393.543 266.833C393.786 267.169 393.914 267.557 393.924 267.994H392.739ZM395.504 265.854H396.996L399.589 272.186H399.684L402.278 265.854H403.769V274H402.6V268.105H402.524L400.122 273.988H399.151L396.749 268.102H396.674V274H395.504V265.854ZM408.197 274.111C407.627 274.111 407.123 274.013 406.685 273.817C406.251 273.621 405.91 273.35 405.663 273.005C405.417 272.661 405.295 272.268 405.297 271.828C405.295 271.484 405.365 271.167 405.508 270.878C405.654 270.586 405.852 270.343 406.101 270.15C406.35 269.954 406.628 269.829 406.936 269.776V269.728C406.53 269.63 406.205 269.413 405.962 269.076C405.718 268.739 405.597 268.352 405.6 267.915C405.597 267.498 405.707 267.127 405.93 266.801C406.155 266.472 406.464 266.214 406.856 266.025C407.249 265.837 407.696 265.743 408.197 265.743C408.693 265.743 409.135 265.838 409.525 266.029C409.918 266.218 410.227 266.476 410.452 266.805C410.677 267.131 410.791 267.501 410.794 267.915C410.791 268.352 410.667 268.739 410.42 269.076C410.173 269.413 409.853 269.63 409.458 269.728V269.776C409.763 269.829 410.037 269.954 410.281 270.15C410.527 270.343 410.724 270.586 410.87 270.878C411.018 271.167 411.094 271.484 411.096 271.828C411.094 272.268 410.969 272.661 410.722 273.005C410.476 273.35 410.134 273.621 409.696 273.817C409.261 274.013 408.762 274.111 408.197 274.111ZM408.197 273.105C408.534 273.105 408.825 273.049 409.072 272.938C409.318 272.824 409.509 272.666 409.645 272.465C409.78 272.26 409.849 272.022 409.851 271.749C409.849 271.465 409.774 271.214 409.629 270.997C409.485 270.78 409.291 270.609 409.044 270.484C408.797 270.359 408.515 270.297 408.197 270.297C407.876 270.297 407.591 270.359 407.342 270.484C407.092 270.609 406.896 270.78 406.753 270.997C406.61 271.214 406.54 271.465 406.542 271.749C406.54 272.022 406.605 272.26 406.737 272.465C406.872 272.666 407.065 272.824 407.314 272.938C407.563 273.049 407.857 273.105 408.197 273.105ZM408.197 269.315C408.467 269.315 408.707 269.26 408.917 269.152C409.126 269.043 409.291 268.892 409.41 268.698C409.532 268.505 409.594 268.278 409.597 268.018C409.594 267.763 409.533 267.541 409.414 267.35C409.297 267.159 409.134 267.012 408.925 266.908C408.715 266.802 408.473 266.749 408.197 266.749C407.916 266.749 407.669 266.802 407.457 266.908C407.248 267.012 407.084 267.159 406.968 267.35C406.851 267.541 406.794 267.763 406.797 268.018C406.794 268.278 406.852 268.505 406.972 268.698C407.091 268.892 407.255 269.043 407.465 269.152C407.677 269.26 407.921 269.315 408.197 269.315ZM415.23 265.743C415.593 265.746 415.951 265.812 416.303 265.942C416.656 266.072 416.974 266.284 417.258 266.578C417.544 266.873 417.772 267.27 417.942 267.771C418.114 268.27 418.202 268.89 418.205 269.633C418.205 270.346 418.133 270.981 417.99 271.538C417.847 272.092 417.641 272.56 417.373 272.942C417.108 273.324 416.786 273.614 416.407 273.813C416.028 274.012 415.601 274.111 415.126 274.111C414.641 274.111 414.21 274.016 413.834 273.825C413.457 273.634 413.151 273.37 412.915 273.033C412.679 272.694 412.532 272.304 412.473 271.864H413.686C413.766 272.214 413.928 272.498 414.172 272.715C414.418 272.93 414.736 273.037 415.126 273.037C415.723 273.037 416.188 272.777 416.522 272.258C416.856 271.735 417.025 271.006 417.027 270.07H416.964C416.826 270.298 416.653 270.494 416.447 270.659C416.242 270.823 416.013 270.951 415.759 271.041C415.504 271.131 415.232 271.176 414.943 271.176C414.474 271.176 414.047 271.061 413.663 270.83C413.278 270.599 412.972 270.282 412.744 269.879C412.516 269.476 412.402 269.016 412.402 268.499C412.402 267.985 412.518 267.518 412.752 267.099C412.988 266.68 413.317 266.349 413.738 266.105C414.162 265.858 414.66 265.738 415.23 265.743ZM415.234 266.777C414.923 266.777 414.644 266.854 414.394 267.008C414.148 267.159 413.953 267.364 413.81 267.624C413.667 267.881 413.595 268.168 413.595 268.483C413.595 268.799 413.664 269.085 413.802 269.342C413.942 269.597 414.133 269.8 414.374 269.951C414.618 270.099 414.897 270.174 415.21 270.174C415.443 270.174 415.66 270.129 415.862 270.038C416.063 269.948 416.24 269.824 416.391 269.665C416.542 269.503 416.66 269.32 416.745 269.116C416.83 268.912 416.872 268.697 416.872 268.471C416.872 268.172 416.801 267.893 416.657 267.636C416.517 267.379 416.323 267.172 416.077 267.016C415.83 266.857 415.549 266.777 415.234 266.777ZM422.477 274.111C421.931 274.111 421.443 274.017 421.014 273.829C420.587 273.641 420.249 273.379 419.999 273.045C419.753 272.709 419.62 272.319 419.602 271.876H420.85C420.866 272.117 420.947 272.327 421.093 272.504C421.242 272.679 421.435 272.815 421.674 272.91C421.912 273.005 422.178 273.053 422.469 273.053C422.79 273.053 423.074 272.998 423.32 272.886C423.57 272.775 423.764 272.62 423.905 272.421C424.046 272.219 424.116 271.987 424.116 271.725C424.116 271.452 424.046 271.212 423.905 271.005C423.767 270.795 423.564 270.631 423.296 270.512C423.031 270.392 422.711 270.333 422.334 270.333H421.646V269.33H422.334C422.636 269.33 422.901 269.276 423.129 269.167C423.36 269.059 423.54 268.908 423.67 268.714C423.8 268.518 423.865 268.288 423.865 268.026C423.865 267.774 423.808 267.555 423.694 267.37C423.583 267.181 423.424 267.034 423.217 266.928C423.013 266.822 422.771 266.769 422.493 266.769C422.228 266.769 421.98 266.818 421.749 266.916C421.521 267.012 421.336 267.15 421.193 267.33C421.049 267.508 420.972 267.721 420.962 267.97H419.773C419.786 267.53 419.916 267.143 420.162 266.809C420.412 266.475 420.74 266.214 421.149 266.025C421.557 265.837 422.011 265.743 422.509 265.743C423.031 265.743 423.482 265.845 423.861 266.049C424.243 266.251 424.537 266.52 424.744 266.857C424.954 267.193 425.057 267.562 425.054 267.962C425.057 268.418 424.93 268.805 424.673 269.124C424.418 269.442 424.079 269.655 423.654 269.764V269.828C424.195 269.91 424.614 270.125 424.911 270.472C425.211 270.819 425.359 271.25 425.357 271.765C425.359 272.213 425.235 272.614 424.983 272.97C424.734 273.325 424.393 273.605 423.961 273.809C423.529 274.01 423.034 274.111 422.477 274.111ZM429.612 274.111C429.042 274.111 428.539 274.013 428.101 273.817C427.666 273.621 427.325 273.35 427.079 273.005C426.832 272.661 426.71 272.268 426.713 271.828C426.71 271.484 426.781 271.167 426.924 270.878C427.07 270.586 427.267 270.343 427.516 270.15C427.766 269.954 428.044 269.829 428.352 269.776V269.728C427.946 269.63 427.621 269.413 427.377 269.076C427.133 268.739 427.013 268.352 427.015 267.915C427.013 267.498 427.123 267.127 427.345 266.801C427.571 266.472 427.88 266.214 428.272 266.025C428.664 265.837 429.111 265.743 429.612 265.743C430.108 265.743 430.551 265.838 430.941 266.029C431.333 266.218 431.642 266.476 431.868 266.805C432.093 267.131 432.207 267.501 432.21 267.915C432.207 268.352 432.082 268.739 431.836 269.076C431.589 269.413 431.268 269.63 430.873 269.728V269.776C431.178 269.829 431.453 269.954 431.696 270.15C431.943 270.343 432.139 270.586 432.285 270.878C432.434 271.167 432.509 271.484 432.512 271.828C432.509 272.268 432.385 272.661 432.138 273.005C431.891 273.35 431.549 273.621 431.112 273.817C430.677 274.013 430.177 274.111 429.612 274.111ZM429.612 273.105C429.949 273.105 430.241 273.049 430.487 272.938C430.734 272.824 430.925 272.666 431.06 272.465C431.195 272.26 431.264 272.022 431.267 271.749C431.264 271.465 431.19 271.214 431.044 270.997C430.901 270.78 430.706 270.609 430.46 270.484C430.213 270.359 429.931 270.297 429.612 270.297C429.292 270.297 429.007 270.359 428.757 270.484C428.508 270.609 428.312 270.78 428.169 270.997C428.025 271.214 427.955 271.465 427.958 271.749C427.955 272.022 428.02 272.26 428.153 272.465C428.288 272.666 428.48 272.824 428.729 272.938C428.979 273.049 429.273 273.105 429.612 273.105ZM429.612 269.315C429.883 269.315 430.123 269.26 430.332 269.152C430.542 269.043 430.706 268.892 430.825 268.698C430.947 268.505 431.01 268.278 431.012 268.018C431.01 267.763 430.949 267.541 430.829 267.35C430.713 267.159 430.55 267.012 430.34 266.908C430.131 266.802 429.888 266.749 429.612 266.749C429.331 266.749 429.085 266.802 428.873 266.908C428.663 267.012 428.5 267.159 428.383 267.35C428.267 267.541 428.21 267.763 428.212 268.018C428.21 268.278 428.268 268.505 428.387 268.698C428.507 268.892 428.671 269.043 428.881 269.152C429.093 269.26 429.337 269.315 429.612 269.315ZM433.937 274V273.109L436.693 270.253C436.987 269.943 437.23 269.671 437.421 269.438C437.614 269.202 437.759 268.978 437.854 268.766C437.95 268.554 437.997 268.328 437.997 268.09C437.997 267.819 437.934 267.586 437.807 267.39C437.679 267.191 437.506 267.038 437.286 266.932C437.065 266.823 436.818 266.769 436.542 266.769C436.25 266.769 435.996 266.829 435.778 266.948C435.561 267.067 435.394 267.236 435.277 267.453C435.16 267.671 435.102 267.925 435.102 268.217H433.929C433.929 267.721 434.043 267.287 434.271 266.916C434.499 266.545 434.812 266.257 435.209 266.053C435.607 265.846 436.059 265.743 436.566 265.743C437.077 265.743 437.528 265.845 437.918 266.049C438.31 266.251 438.617 266.527 438.837 266.877C439.057 267.224 439.167 267.616 439.167 268.054C439.167 268.356 439.11 268.652 438.996 268.941C438.884 269.23 438.69 269.552 438.411 269.907C438.133 270.26 437.746 270.688 437.25 271.192L435.631 272.886V272.946H439.298V274H433.937ZM443.896 265.854V274H442.663V267.087H442.615L440.666 268.36V267.183L442.699 265.854H443.896ZM449.19 265.854V274H447.957V267.087H447.909L445.96 268.36V267.183L447.992 265.854H449.19Z" fill="#212B36"/>
<rect x="387.402" y="283.4" width="40" height="4" rx="2" fill="#E8E8E8"/>
<rect x="387.402" y="293.8" width="72.8" height="4" rx="2" fill="#E8E8E8"/>
<rect x="387.402" y="304.2" width="57.6" height="4" rx="2" fill="#D9D9D9"/>
<g clip-path="url(#clip0_2001_1699)">
<rect x="485" y="257" width="12" height="12" rx="6" fill="#FC8B8B"/>
<path d="M494.15 259.855C493.955 259.66 493.64 259.66 493.445 259.855L491 262.295L488.555 259.85C488.36 259.655 488.045 259.655 487.85 259.85C487.655 260.045 487.655 260.36 487.85 260.555L490.295 263L487.85 265.445C487.655 265.64 487.655 265.955 487.85 266.15C488.045 266.345 488.36 266.345 488.555 266.15L491 263.705L493.445 266.15C493.64 266.345 493.955 266.345 494.15 266.15C494.345 265.955 494.345 265.64 494.15 265.445L491.705 263L494.15 260.555C494.34 260.365 494.34 260.045 494.15 259.855Z" fill="white"/>
</g>
<defs>
<filter id="filter0_d_2001_1699" x="193.96" y="132.6" width="137.28" height="137.28" filterUnits="userSpaceOnUse" color-interpolation-filters="sRGB">
<feFlood flood-opacity="0" result="BackgroundImageFix"/>
<feColorMatrix in="SourceAlpha" type="matrix" values="0 0 0 0 0 0 0 0 0 0 0 0 0 0 0 0 0 0 127 0" result="hardAlpha"/>
<feOffset dy="2.64"/>
<feGaussianBlur stdDeviation="14.52"/>
<feComposite in2="hardAlpha" operator="out"/>
<feColorMatrix type="matrix" values="0 0 0 0 0 0 0 0 0 0 0 0 0 0 0 0 0 0 0.12 0"/>
<feBlend mode="normal" in2="BackgroundImageFix" result="effect1_dropShadow_2001_1699"/>
<feBlend mode="normal" in="SourceGraphic" in2="effect1_dropShadow_2001_1699" result="shape"/>
</filter>
<linearGradient id="paint0_linear_2001_1699" x1="304.797" y1="239.491" x2="338.288" y2="299.299" gradientUnits="userSpaceOnUse">
<stop stop-color="#C1FF72" stop-opacity="0.5"/>
<stop offset="1" stop-color="#86D91B" stop-opacity="0.8"/>
</linearGradient>
<linearGradient id="paint1_linear_2001_1699" x1="303" y1="159" x2="333.274" y2="100.513" gradientUnits="userSpaceOnUse">
<stop stop-color="#C1FF72" stop-opacity="0.5"/>
<stop offset="1" stop-color="#86D91B" stop-opacity="0.8"/>
</linearGradient>
<linearGradient id="paint2_linear_2001_1699" x1="302" y1="179" x2="322" y2="182" gradientUnits="userSpaceOnUse">
<stop stop-color="#E2FFBC" stop-opacity="0.5"/>
<stop offset="1" stop-color="#879971" stop-opacity="0.5"/>
</linearGradient>
<linearGradient id="paint3_linear_2001_1699" x1="302" y1="187" x2="322" y2="187" gradientUnits="userSpaceOnUse">
<stop stop-color="#E2FFBC" stop-opacity="0.5"/>
<stop offset="1" stop-color="#879971" stop-opacity="0.5"/>
</linearGradient>
<linearGradient id="paint4_linear_2001_1699" x1="302" y1="195" x2="322" y2="195" gradientUnits="userSpaceOnUse">
<stop stop-color="#E2FFBC" stop-opacity="0.5"/>
<stop offset="1" stop-color="#879971" stop-opacity="0.5"/>
</linearGradient>
<clipPath id="clip0_2001_1699">
<rect x="485" y="257" width="12" height="12" rx="6" fill="white"/>
</clipPath>
</defs>
</svg>
