<svg width="153" height="50" viewBox="0 0 153 50" fill="none" xmlns="http://www.w3.org/2000/svg">
<path d="M22.8764 38.7579H18.082V22.7542C18.082 20.0655 17.5634 18.2164 16.536 17.2116C15.5037 16.1976 14.0752 15.6883 12.2503 15.6883C10.8414 15.6883 9.50087 16.0141 8.23865 16.661C6.97154 17.2988 6.07136 18.2026 5.5381 19.3772C5.01462 20.5518 4.75533 22.2173 4.75533 24.3692V38.7579H0V12.4398H4.28566V16.1655H4.38351C5.38643 14.7248 6.62419 13.6465 8.10167 12.9354C9.57425 12.215 11.2817 11.8525 13.2288 11.8525C14.7014 11.8525 16.1642 12.1049 17.6123 12.605C19.0604 13.0959 20.1955 13.8347 21.0174 14.8257C21.8393 15.8168 22.353 16.8766 22.5633 18.0008C22.7688 19.1295 22.8764 20.6436 22.8764 22.5523V38.7579Z" fill="#202326"/>
<path d="M31.1323 38.757H26.377V12.4389H31.1323V38.757ZM31.1323 7.44695H26.377V2.3999H31.1323V7.44695Z" fill="#202326"/>
<path d="M72.7703 38.758H67.9954V22.1303C67.9954 20.9098 67.9025 19.8683 67.7215 19.0103C67.5502 18.1431 67.1001 17.3723 66.3712 16.6978C65.6373 16.0279 64.4974 15.6884 62.9466 15.6884C61.0777 15.6884 59.4681 16.3032 58.113 17.5237C56.7529 18.7488 56.0778 20.7309 56.0778 23.4701V38.758H51.3224V21.6348C51.3224 19.359 50.8919 17.799 50.0309 16.9548C49.1698 16.1105 47.9565 15.6884 46.391 15.6884C44.3411 15.6884 42.6582 16.3491 41.3421 17.6705C40.0359 18.9919 39.3852 21.465 39.3852 25.0851V38.758H34.6299V12.44H38.9155V16.1105H39.0134C40.9165 13.275 43.7149 11.8527 47.4086 11.8527C49.4683 11.8527 51.1659 12.2381 52.4966 13.0089C53.8273 13.7705 54.7911 14.9176 55.3928 16.4592C57.4672 13.3897 60.3488 11.8527 64.0425 11.8527C66.9485 11.8527 69.1305 12.5868 70.5786 14.055C72.0365 15.5232 72.7703 17.7348 72.7703 20.6804V38.758Z" fill="#202326"/>
<path d="M81.0486 15.3941C82.8098 13.0358 85.3342 11.852 88.6219 11.852C92.2324 11.852 95.1237 13.0817 97.291 15.5409C99.4534 18.0002 100.54 21.2212 100.54 25.1946C100.54 29.7736 99.3262 33.2836 96.8996 35.7291C94.4828 38.1655 91.6551 39.3814 88.4066 39.3814C85.1043 39.3814 82.5407 38.0737 80.7159 35.4539H80.5985V38.7574H76.1562V2.40027H80.9116V15.3941H81.0486ZM88.0348 35.7108C90.2363 35.7108 92.0563 34.8253 93.4946 33.0496C94.928 31.2648 95.6472 28.7688 95.6472 25.5616C95.6472 22.4692 94.9867 20.0145 93.6707 18.2021C92.3498 16.3944 90.525 15.4859 88.1913 15.4859C85.8919 15.4859 84.0475 16.4219 82.6532 18.2939C81.254 20.1659 80.5593 22.5334 80.5593 25.3965C80.5593 28.1861 80.8431 30.1774 81.4204 31.3612C82.0075 32.5357 82.8783 33.5589 84.0427 34.4261C85.2168 35.2841 86.5475 35.7108 88.0348 35.7108Z" fill="#202326"/>
<path d="M126.975 26.7184H105.958C106.154 29.6319 107.039 31.8572 108.619 33.3989C110.195 34.9405 112.166 35.7113 114.529 35.7113C116.339 35.7113 117.861 35.2617 119.089 34.3532C120.327 33.4493 121.271 32.0912 121.926 30.2789L126.819 30.8478C126.021 33.5916 124.568 35.7021 122.455 37.1796C120.341 38.6478 117.699 39.3819 114.529 39.3819C110.312 39.3819 107.02 38.1706 104.647 35.748C102.269 33.3254 101.085 30.0127 101.085 25.8007C101.085 21.653 102.23 18.2944 104.529 15.725C106.839 13.1464 110.077 11.8525 114.255 11.8525C116.3 11.8525 118.272 12.2747 120.165 13.1189C122.068 13.9539 123.678 15.3855 124.999 17.4135C126.315 19.4461 126.975 22.5477 126.975 26.7184ZM122.083 23.0478C121.887 20.3821 120.997 18.455 119.422 17.2666C117.841 16.0829 116.119 15.4864 114.255 15.4864C112.024 15.4864 110.185 16.193 108.737 17.597C107.289 19.0056 106.447 20.8225 106.212 23.0478H122.083Z" fill="#202326"/>
<path d="M152.063 12.4385L141.339 39.197C141.309 39.2337 141.29 39.2934 141.28 39.3805C140.262 42.3537 139.069 44.7671 137.699 46.6299C136.329 48.4882 134.382 49.4196 131.867 49.4196C131.016 49.4196 129.989 49.2544 128.775 48.9241L128.286 44.7029C129.211 44.969 130.111 45.1067 130.987 45.1067C132.748 45.1067 133.966 44.6478 134.646 43.7302C135.321 42.8217 136.084 41.1837 136.936 38.8116L126.29 12.4385H131.417L138.032 29.6719C138.408 30.7363 138.819 32.1036 139.264 33.7646H139.382C139.812 31.8559 140.37 30.0343 141.065 28.2954L147.229 12.4385H152.063Z" fill="#202326"/>
<mask id="mask0_2001_1196" style="mask-type:luminance" maskUnits="userSpaceOnUse" x="24" y="0" width="9" height="12">
<path d="M24.3403 0H32.8939V11.4048H24.3403V0Z" fill="white"/>
</mask>
<g mask="url(#mask0_2001_1196)">
<path d="M30.6596 9.6464C32.0224 9.1067 33.5872 7.027 32.4898 2.94539C31.6023 0.788262 29.5702 0.88401 28.8927 0.212094C28.7665 0.0912878 28.5906 0.0207863 28.4044 0.0116229C28.155 0.000215541 27.8896 0.118591 27.7741 0.289515C27.2175 1.11852 26.3328 1.11852 25.419 2.1162C24.1929 3.45778 24.2324 5.58985 24.5421 7.03167C24.7993 8.23656 26.1358 9.75131 27.2175 10.3138C27.6534 10.5416 27.601 10.3913 27.9343 10.9743C28.0604 11.1954 28.4016 11.5028 28.7273 11.3639C28.9006 11.2909 28.9556 11.1406 28.9899 11.0016C29.0528 10.7649 29.3468 10.1657 30.6596 9.6464Z" fill="#C1FF72"/>
</g>
</svg>
