<svg width="98" height="31" viewBox="0 0 98 31" fill="none" xmlns="http://www.w3.org/2000/svg">
<path d="M14.6409 23.99H11.5725V13.7479C11.5725 12.0271 11.2406 10.8438 10.583 10.2007C9.92238 9.55176 9.00811 9.22582 7.84022 9.22582C6.93847 9.22582 6.08055 9.43431 5.27273 9.84834C4.46178 10.2565 3.88567 10.835 3.54438 11.5867C3.20935 12.3384 3.04341 13.4043 3.04341 14.7815V23.99H0V7.14685H2.74282V9.53121H2.80544C3.44732 8.60918 4.23948 7.91913 5.18506 7.46399C6.12752 7.00297 7.22026 6.771 8.46643 6.771C9.40889 6.771 10.3451 6.9325 11.2719 7.25256C12.1987 7.56676 12.9251 8.03952 13.4511 8.67378C13.9771 9.30804 14.3059 9.98635 14.4405 10.7058C14.572 11.4281 14.6409 12.3971 14.6409 13.6187V23.99Z" fill="white"/>
<path d="M19.926 23.9861H16.8826V7.14297H19.926V23.9861ZM19.926 3.94817H16.8826V0.71814H19.926V3.94817Z" fill="white"/>
<path d="M45.4099 24.4053H42.3539V13.7638C42.3539 12.9827 42.2944 12.3162 42.1786 11.7671C42.069 11.2121 41.781 10.7188 41.3144 10.2871C40.8448 9.8584 40.1152 9.64111 39.1227 9.64111C37.9266 9.64111 36.8965 10.0346 36.0292 10.8157C35.1587 11.5997 34.7266 12.8682 34.7266 14.6212V24.4053H31.6832V13.4467C31.6832 11.9902 31.4077 10.9918 30.8566 10.4516C30.3056 9.91125 29.5291 9.64111 28.5271 9.64111C27.2152 9.64111 26.1381 10.0639 25.2958 10.9096C24.4598 11.7553 24.0434 13.338 24.0434 15.6548V24.4053H21V7.56214H23.7428V9.91125H23.8054C25.0234 8.09656 26.8144 7.18628 29.1784 7.18628C30.4966 7.18628 31.583 7.43294 32.4347 7.92625C33.2863 8.41369 33.9032 9.14779 34.2883 10.1344C35.6159 8.16997 37.4601 7.18628 39.824 7.18628C41.6839 7.18628 43.0803 7.6561 44.0071 8.59575C44.9402 9.5354 45.4099 10.9507 45.4099 12.8359V24.4053Z" fill="white"/>
<path d="M51.8693 9.03401C52.9965 7.5247 54.6121 6.76711 56.7162 6.76711C59.0269 6.76711 60.8774 7.55407 62.2645 9.12797C63.6484 10.7019 64.3435 12.7632 64.3435 15.3061C64.3435 18.2367 63.567 20.483 62.014 22.0481C60.4672 23.6073 58.6575 24.3855 56.5784 24.3855C54.465 24.3855 52.8243 23.5486 51.6564 21.8719H51.5812V23.9861H48.7382V0.71814H51.7816V9.03401H51.8693ZM56.3405 22.0364C57.7494 22.0364 58.9142 21.4696 59.8347 20.3333C60.7522 19.191 61.2124 17.5936 61.2124 15.5411C61.2124 13.5619 60.7897 11.991 59.9475 10.8311C59.1021 9.67414 57.9342 9.09274 56.4407 9.09274C54.9691 9.09274 53.7886 9.69176 52.8963 10.8898C52.0008 12.0879 51.5562 13.603 51.5562 15.4353C51.5562 17.2207 51.7378 18.4951 52.1073 19.2527C52.483 20.0044 53.0403 20.6592 53.7855 21.2142C54.537 21.7633 55.3886 22.0364 56.3405 22.0364Z" fill="white"/>
<path d="M81.2641 16.2849H67.8129C67.9382 18.1495 68.5049 19.5737 69.5163 20.5603C70.5245 21.5469 71.7863 22.0403 73.2986 22.0403C74.4571 22.0403 75.4309 21.7525 76.2168 21.1711C77.0089 20.5926 77.6132 19.7234 78.0328 18.5636L81.1639 18.9277C80.6535 20.6836 79.7236 22.0344 78.3709 22.9799C77.0183 23.9195 75.3275 24.3894 73.2986 24.3894C70.5996 24.3894 68.4924 23.6142 66.9738 22.0637C65.4521 20.5133 64.6944 18.3932 64.6944 15.6976C64.6944 13.0431 65.4271 10.8937 66.8987 9.24931C68.3765 7.59906 70.4493 6.771 73.1233 6.771C74.432 6.771 75.6939 7.04114 76.9056 7.58144C78.1236 8.11586 79.1537 9.03202 79.9991 10.3299C80.8414 11.6307 81.2641 13.6157 81.2641 16.2849ZM78.133 13.9358C78.0077 12.2298 77.4379 10.9965 76.4297 10.2359C75.4183 9.47835 74.3162 9.09662 73.1233 9.09662C71.6955 9.09662 70.5182 9.54883 69.5914 10.4474C68.6646 11.3488 68.1261 12.5116 67.9758 13.9358H78.133Z" fill="white"/>
<path d="M97.3213 7.14648L90.458 24.2715C90.4392 24.295 90.4267 24.3332 90.4204 24.389C89.7692 26.2918 89.0052 27.8363 88.1285 29.0285C87.2518 30.2177 86.0056 30.8138 84.3962 30.8138C83.8514 30.8138 83.1939 30.7081 82.4174 30.4967L82.1043 27.7952C82.6961 27.9655 83.2722 28.0536 83.8326 28.0536C84.9598 28.0536 85.7395 27.76 86.1747 27.1727C86.6068 26.5913 87.0952 25.543 87.64 24.0249L80.8268 7.14648H84.1082L88.3414 18.1756C88.5825 18.8568 88.8455 19.7319 89.1304 20.7948H89.2056C89.4811 19.5733 89.838 18.4076 90.2827 17.2947L94.2278 7.14648H97.3213Z" fill="white"/>
</svg>
